<?xml version="1.0" standalone="no"?><!DOCTYPE svg PUBLIC "-//W3C//DTD SVG 1.1//EN" "http://www.w3.org/Graphics/SVG/1.1/DTD/svg11.dtd"><svg t="1745940637330" class="icon" viewBox="0 0 1024 1024" version="1.1" xmlns="http://www.w3.org/2000/svg" p-id="3539" xmlns:xlink="http://www.w3.org/1999/xlink" width="128" height="128"><path d="M402.42 861.22c-39.93 0-74.29-28.45-81.71-67.64-2.31-12.21 5.72-23.98 17.93-26.29 12.21-2.31 23.98 5.72 26.29 17.93 3.4 17.96 19.16 31 37.49 31s34.09-13.04 37.49-31c2.31-12.21 14.08-20.24 26.29-17.93 12.21 2.31 20.24 14.08 17.93 26.29-7.41 39.19-41.77 67.64-81.71 67.64zM716.23 861.22c-39.93 0-74.29-28.45-81.71-67.64-2.31-12.21 5.72-23.98 17.93-26.29 12.21-2.31 23.98 5.72 26.29 17.93 3.4 17.96 19.16 31 37.49 31s34.09-13.04 37.49-31c2.31-12.21 14.08-20.24 26.29-17.93 12.21 2.31 20.24 14.08 17.93 26.29-7.41 39.19-41.77 67.64-81.71 67.64zM784.63 722.25H345.18a66.77 66.77 0 0 1-45.06-17.45 66.748 66.748 0 0 1-21.46-42.26c-5.24-29.93-45.05-257.49-46.79-270.17-0.01-0.1-0.03-0.19-0.04-0.29-0.33-2.62-1.19-9.59-10.04-9.59l-42.14 0.07c-21.78 0.06-42.27-8.37-57.71-23.76-15.44-15.38-23.96-35.86-23.98-57.65v-1.36c-0.02-21.78 8.44-42.26 23.84-57.67 15.39-15.41 35.87-23.89 57.65-23.89h95.78c18.83 0 37.11 6.7 51.45 18.88 19.25 16.33 37.85 32.33 55.84 47.8 11.84 10.18 24.09 20.71 36.44 31.27 6.26 5.35 14.25 8.3 22.48 8.3h375.33c18.78 0 36.81 7.96 49.46 21.85 12.65 13.88 18.91 32.57 17.16 51.27-0.02 0.21-0.04 0.42-0.07 0.63L851.23 661.9a66.754 66.754 0 0 1-21.52 42.9 66.788 66.788 0 0 1-45.06 17.45zM276.46 386.36c1.43 10.09 28.65 166.3 46.66 269.22 0.1 0.59 0.18 1.19 0.24 1.79 1.06 11.33 10.43 19.88 21.82 19.88h439.45c11.38 0 20.76-8.55 21.82-19.88 0.02-0.21 0.04-0.42 0.07-0.63l32.08-263.58c0.5-6.12-1.5-11.98-5.64-16.53-4.2-4.61-9.95-7.15-16.2-7.15H441.43c-18.94 0-37.31-6.78-51.71-19.1-12.4-10.6-24.67-21.15-36.54-31.35-17.93-15.42-36.48-31.37-55.62-47.6a34.564 34.564 0 0 0-22.34-8.19h-95.78c-9.75 0-18.92 3.8-25.81 10.7-6.89 6.9-10.68 16.07-10.67 25.82v1.36c0.01 9.76 3.82 18.93 10.74 25.81 6.91 6.89 16.1 10.65 25.85 10.64l42.2-0.07c6.36 0 18.78 1.18 30.91 9.09 9.34 6.09 21.03 17.93 23.8 39.78z m584.52 9.15z" fill="#333333" p-id="3540"></path><path d="M728.53 616.09H399.57c-12.43 0-22.5-10.07-22.5-22.5s10.07-22.5 22.5-22.5h328.96c12.43 0 22.5 10.07 22.5 22.5s-10.07 22.5-22.5 22.5z" fill="#333333" p-id="3541"></path></svg>