<?xml version="1.0" standalone="no"?><!DOCTYPE svg PUBLIC "-//W3C//DTD SVG 1.1//EN" "http://www.w3.org/Graphics/SVG/1.1/DTD/svg11.dtd"><svg t="1745940734997" class="icon" viewBox="0 0 1024 1024" version="1.1" xmlns="http://www.w3.org/2000/svg" p-id="4045" xmlns:xlink="http://www.w3.org/1999/xlink" width="128" height="128"><path d="M289.76 723.93h-53.97c-53.35 0-96.76-43.41-96.76-96.76V526.95c0-53.35 43.41-96.76 96.76-96.76h53.97c28.82 0 52.26 23.45 52.26 52.26v189.21c0 28.82-23.45 52.26-52.26 52.26z m-53.97-248.74c-28.54 0-51.76 23.22-51.76 51.76v100.22c0 28.54 23.22 51.76 51.76 51.76h53.97c4.01 0 7.26-3.26 7.26-7.26V482.46c0-4.01-3.26-7.26-7.26-7.26h-53.97zM797.26 723.93h-53.97c-28.82 0-52.26-23.45-52.26-52.26V482.46c0-28.82 23.45-52.26 52.26-52.26h53.97c53.35 0 96.76 43.41 96.76 96.76v100.22c0 53.35-43.41 96.76-96.76 96.76z m-53.97-248.74c-4.01 0-7.26 3.26-7.26 7.26v189.21c0 4.01 3.26 7.26 7.26 7.26h53.97c28.54 0 51.76-23.22 51.76-51.76V526.94c0-28.54-23.22-51.76-51.76-51.76h-53.97z" fill="#333333" p-id="4046"></path><path d="M778.52 445.18c-12.43 0-22.5-10.07-22.5-22.5v-16.51c0-64.02-24.93-124.21-70.2-169.47-45.27-45.27-105.46-70.2-169.47-70.2s-124.21 24.93-169.47 70.2c-45.27 45.27-70.2 105.46-70.2 169.47v16.51c0 12.43-10.07 22.5-22.5 22.5s-22.5-10.07-22.5-22.5v-16.51c0-76.04 29.61-147.53 83.38-201.29s125.26-83.38 201.29-83.38 147.53 29.61 201.29 83.38c53.77 53.77 83.38 125.25 83.38 201.29v16.51c0 12.43-10.07 22.5-22.5 22.5zM628.5 889h-105c-12.43 0-22.5-10.07-22.5-22.5s10.07-22.5 22.5-22.5h105c70.3 0 127.5-57.2 127.5-127.5 0-12.43 10.07-22.5 22.5-22.5s22.5 10.07 22.5 22.5c0 95.12-77.38 172.5-172.5 172.5z" fill="#333333" p-id="4047"></path></svg>