<?xml version="1.0" standalone="no"?><!DOCTYPE svg PUBLIC "-//W3C//DTD SVG 1.1//EN" "http://www.w3.org/Graphics/SVG/1.1/DTD/svg11.dtd"><svg t="1745940369648" class="icon" viewBox="0 0 1024 1024" version="1.1" xmlns="http://www.w3.org/2000/svg" p-id="2348" xmlns:xlink="http://www.w3.org/1999/xlink" width="128" height="128"><path d="M510.68 766.89c-25.04 0-49.01-9.98-69.44-28.93-2.73-2.5-47.35-43.67-92.49-104.82-26.98-36.55-48.53-72.7-64.06-107.45-19.88-44.5-29.97-86.99-29.97-126.28 0-67.64 26.76-131.22 75.35-179 48.46-47.66 112.85-73.91 181.31-73.91h0.56c33.52 0 66.31 6.42 97.41 19.08 31.25 12.72 59.32 31.15 83.42 54.77 23.97 23.48 42.72 51.04 55.74 81.92 13.05 30.94 19.66 63.62 19.66 97.14 0 41.26-10.16 84.95-30.21 129.88-15.7 35.19-37.5 71.27-64.78 107.25-44.21 58.28-87.97 96.85-93.24 101.42-19.28 18.22-43.25 28.49-67.58 28.92-0.57 0.01-1.14 0.02-1.7 0.02z m0.76-575.39c-56.63 0-109.81 21.66-149.8 60.99-39.92 39.26-61.9 91.43-61.9 146.92 0 146.41 170.21 303.82 171.93 305.4l0.13 0.12c24.26 22.53 53.96 22.56 77.52 0.07l0.9-0.81c0.43-0.37 44.43-38.39 87.68-95.58 38.91-51.45 85.29-129.5 85.29-209.2 0-54.83-22.56-108.38-61.89-146.91-40.15-39.34-93.19-60.99-149.38-60.99h-0.47z m-0.06 320.75c-58.54 0-106.17-47.63-106.17-106.17s47.63-106.17 106.17-106.17 106.17 47.63 106.17 106.17-47.63 106.17-106.17 106.17z m0-167.34c-33.73 0-61.17 27.44-61.17 61.17s27.44 61.17 61.17 61.17 61.17-27.44 61.17-61.17-27.44-61.17-61.17-61.17z" fill="#333333" p-id="2349"></path><path d="M799.44 872H223.47c-26.34 0-50.52-13.26-64.68-35.47-14.16-22.21-15.99-49.72-4.88-73.61l39.56-85.06c12.54-26.95 39.84-44.36 69.56-44.36H388.7c12.43 0 22.5 10.07 22.5 22.5s-10.07 22.5-22.5 22.5H263.03c-12.29 0-23.58 7.2-28.76 18.34l-39.56 85.06c-4.66 10.02-3.93 21.11 2.02 30.43 5.94 9.32 15.69 14.66 26.74 14.66h575.97c11.05 0 20.8-5.34 26.74-14.66s6.68-20.41 2.02-30.43l-39.56-85.06c-5.18-11.14-16.47-18.34-28.76-18.34H639.29c-12.43 0-22.5-10.07-22.5-22.5s10.07-22.5 22.5-22.5h120.59c29.72 0 57.03 17.41 69.56 44.36L869 762.92c11.11 23.88 9.28 51.4-4.88 73.61S825.78 872 799.44 872z" fill="#333333" p-id="2350"></path></svg>