<?xml version="1.0" standalone="no"?><!DOCTYPE svg PUBLIC "-//W3C//DTD SVG 1.1//EN" "http://www.w3.org/Graphics/SVG/1.1/DTD/svg11.dtd"><svg t="1745940479847" class="icon" viewBox="0 0 1024 1024" version="1.1" xmlns="http://www.w3.org/2000/svg" p-id="3028" xmlns:xlink="http://www.w3.org/1999/xlink" width="128" height="128"><path d="M496.49 886.37h-0.03c-3.96 0-44.44-4.55-94.56-23.12-67.96-25.18-124.61-65.39-163.84-116.29-27.17-35.25-47.95-75.92-61.77-120.88-12.98-42.21-19.55-87.24-19.55-133.83V264.44c0-19.94 6.83-39.52 19.23-55.14 12.4-15.62 29.92-26.7 49.35-31.22l242.61-56.74c18.24-4.27 37.54-4.28 55.79-0.04l244.09 56.74c19.43 4.54 36.93 15.63 49.31 31.24 12.38 15.61 19.2 35.18 19.2 55.1v227.86c0 111.44-27.83 197.69-82.71 256.35-60.09 64.22-125.64 98.15-170.06 115.3-47.55 18.36-82.52 22.48-87.05 22.48z m-0.6-723.26c-5.96 0-11.93 0.68-17.73 2.03l-242.63 56.75c-19.91 4.63-33.8 22.12-33.8 42.54v227.81c0 42.11 5.91 82.69 17.57 120.61 12.23 39.8 30.53 75.67 54.4 106.64 77.1 100.04 204.96 119.48 222.78 121.74 7.57-1.01 35.76-5.49 73.26-20.25 39.37-15.5 97.52-45.97 151-103.12 24.9-26.61 43.48-61.11 55.22-102.52 10.19-35.93 15.35-77.34 15.35-123.09V264.39c0-20.39-13.87-37.88-33.73-42.52l-244.06-56.73a77.872 77.872 0 0 0-17.62-2.01z" fill="#333333" p-id="3029"></path><path d="M448.99 626.48c-20.79 0-40.39-8.99-53.95-24.75l-69.77-74.77c-8.48-9.09-7.98-23.32 1.1-31.8 9.09-8.48 23.32-7.98 31.8 1.1l70.1 75.13c0.25 0.27 0.49 0.54 0.73 0.82 5.04 5.95 12.4 9.34 20.2 9.27 7.8-0.06 15.11-3.56 20.05-9.6 0.07-0.08 0.14-0.17 0.21-0.25L646.11 362c8.01-9.5 22.2-10.72 31.7-2.71 9.5 8.01 10.71 22.2 2.71 31.7L503.97 600.5c-13.43 16.33-33.25 25.79-54.39 25.96h-0.59z" fill="#333333" p-id="3030"></path></svg>