<?xml version="1.0" standalone="no"?><!DOCTYPE svg PUBLIC "-//W3C//DTD SVG 1.1//EN" "http://www.w3.org/Graphics/SVG/1.1/DTD/svg11.dtd"><svg t="1745940389568" class="icon" viewBox="0 0 1024 1024" version="1.1" xmlns="http://www.w3.org/2000/svg" p-id="2517" xmlns:xlink="http://www.w3.org/1999/xlink" width="128" height="128"><path d="M492.17 872.2c-46.9 0-92.62-8.9-135.89-26.45-44.81-18.17-85.01-44.86-119.48-79.33s-61.16-74.67-79.33-119.48c-17.55-43.27-26.45-89-26.45-135.89s8.9-92.62 26.45-135.89c18.17-44.81 44.86-85.01 79.33-119.48s74.67-61.16 119.48-79.33c43.27-17.55 88.99-26.45 135.89-26.45s92.62 8.9 135.89 26.45c44.81 18.17 85.01 44.86 119.48 79.33s61.16 74.67 79.33 119.48c17.55 43.27 26.45 88.99 26.45 135.89s-8.9 92.62-26.45 135.89c-18.17 44.81-44.86 85.01-79.33 119.48s-74.67 61.16-119.48 79.33c-43.28 17.55-89 26.45-135.89 26.45z m0-677.3c-84.45 0-163.84 32.89-223.55 92.6-59.71 59.71-92.6 139.11-92.6 223.55s32.89 163.84 92.6 223.55c59.71 59.71 139.1 92.6 223.55 92.6s163.84-32.89 223.55-92.6c59.71-59.71 92.6-139.11 92.6-223.55s-32.89-163.84-92.6-223.55c-59.71-59.71-139.11-92.6-223.55-92.6z m239.46 555.61z" fill="#333333" p-id="2518"></path><path d="M492.17 710.75m-38.75 0a38.75 38.75 0 1 0 77.5 0 38.75 38.75 0 1 0-77.5 0Z" fill="#333333" p-id="2519"></path><path d="M491.5 612c-12.43 0-22.5-10.07-22.5-22.5v-11.46c0-33.46 20.93-63.51 52.08-74.77 34.35-12.41 57.42-45.31 57.42-81.85 0-23.33-9.03-45.2-25.42-61.59s-38.26-25.41-61.58-25.41c-47.97 0-87 39.03-87 87 0 12.43-10.07 22.5-22.5 22.5s-22.5-10.07-22.5-22.5c0-72.79 59.21-132 132-132 35.34 0 68.52 13.71 93.41 38.59 24.89 24.89 38.59 58.06 38.59 93.41 0 55.43-35.01 105.33-87.12 124.17C523 550.43 514 563.47 514 578.04v11.46c0 12.43-10.07 22.5-22.5 22.5z" fill="#333333" p-id="2520"></path></svg>