<?xml version="1.0" standalone="no"?><!DOCTYPE svg PUBLIC "-//W3C//DTD SVG 1.1//EN" "http://www.w3.org/Graphics/SVG/1.1/DTD/svg11.dtd"><svg t="1753534182192" class="icon" viewBox="0 0 1024 1024" version="1.1" xmlns="http://www.w3.org/2000/svg" p-id="10994" xmlns:xlink="http://www.w3.org/1999/xlink" width="128" height="128"><path d="M684.721 614.776l-89.614 103.746-56.853 65.816-15.347 17.768c-0.798 0.922-1.595 1.846-2.393 2.77-1.284 1.486-2.683 2.838-4.148 4.143 5.242-4.668 2.163-1.648 0.555-0.609-1.139 0.736-2.357 1.338-3.572 1.934 7.298-3.584-0.243-0.279-2.797 0.184 7.726-1.398 3.588-0.525 1.495-0.484-6.666 0.127 4.478 1.02 0.217 0.242-1.288-0.236-2.542-0.625-3.79-1.01-4.759-1.475 5.587 2.68 1.07 0.449-1.226-0.604-2.375-1.352-3.519-2.094-4.297-2.789 4.542 3.875 0.646 0.395-1.165-1.041-2.221-2.207-3.239-3.391l-1.987-2.309-10.004-11.623-39.623-46.033-121.717-141.414-109.789-127.555L195.6 446.99l-1.293-1.502c-2.773-3.222 3.668 5.317-0.044-0.224-1.525-2.277-2.793-4.717-3.986-7.179-2.266-4.682 2.222 5.675 0.334 0.777-0.514-1.335-0.949-2.699-1.384-4.062-1.029-3.221-1.75-6.533-2.352-9.856-0.962-5.314 0.69 6.25 0.12 0.886-0.153-1.439-0.227-2.885-0.3-4.33-0.144-2.853-0.046-5.71 0.143-8.558 0.12-1.804 0.983-6.889-0.234 1.107 0.206-1.351 0.501-2.685 0.799-4.017a46.99 46.99 0 0 1 2.403-7.566l1.735-4.234 61.894-151.021 4.419-10.783c0.918-2.242 3.777-8.912-0.378 0.799 1.083-2.532 2.505-4.908 3.997-7.215 0.898-1.389 4.1-5.288-0.545 0.521 0.897-1.122 1.873-2.177 2.845-3.232 1.977-2.144 4.166-4.081 6.403-5.944-5.594 4.658-1.694 1.33-0.348 0.388 1.609-1.125 3.297-2.131 4.993-3.118 1.268-0.737 2.58-1.394 3.891-2.048 4.781-2.388-5.582 2.159-0.639 0.209 2.656-1.047 5.408-1.821 8.182-2.481 1.748-0.416 6.889-1.082-1.162-0.042 1.354-0.175 2.72-0.235 4.083-0.293 0.485-0.021 0.972-0.018 1.458-0.017l30.071 0.086 164.898 0.473 184.06 0.528 54.022 0.155 9.602 0.028c1.44 0.004 2.873 0.085 4.31 0.196-8.708-0.676 0.571 0.28 2.944 0.919 1.382 0.373 2.736 0.845 4.088 1.314 2.461 0.944 1.816 0.641-1.936-0.909a67.59 67.59 0 0 1 2.648 1.23c2.657 1.269 5.187 2.79 7.66 4.381 1.241 0.798 2.431 1.673 3.619 2.546-5.884-4.324-1.729-1.249-0.512-0.185 2.188 1.91 4.185 4.024 6.099 6.204 3.463 3.944-3.459-4.792-0.418-0.573 1.087 1.507 2.036 3.106 2.958 4.717 1.289 2.251 3.768 8.511-0.133-1.007l0.192 0.471 1.04 2.538 4.115 10.041 14.393 35.119 36.042 87.943 11.709 28.57 2.103 5.129c1.368 3.337 2.303 6.794 3.004 10.327 1.014 5.105-0.685-6.387-0.121-1.157 0.151 1.404 0.215 2.816 0.279 4.227 0.153 3.354-0.026 6.715-0.322 10.055-0.476 5.372 0.984-6.217 0.115-0.889-0.233 1.434-0.546 2.853-0.858 4.271-0.619 2.815-1.471 5.572-2.403 8.297-0.542 1.585-2.637 6.331 0.425-0.714-0.555 1.275-1.188 2.514-1.822 3.75-0.624 1.215-1.328 2.386-2.033 3.555-0.963 1.595-4.995 6.731 0.066 0.349-2.167 2.733-4.561 5.308-6.84 7.946l-29.938 34.659-10.042 11.625c-8.899 10.303-10.157 25.199 0 35.355 9.105 9.105 26.441 10.32 35.355 0l45.559-52.742c16.843-19.498 25.46-46.806 22.131-72.512-1.369-10.57-4.146-19.219-8.077-28.81l-62.462-152.408-3.037-7.409c-3.917-9.559-8.244-16.883-14.705-24.979-15.048-18.858-41.142-31.37-65.195-31.439l-31.563-0.091-166.254-0.477-183.246-0.526-52.803-0.151-8.788-0.025c-28.652-0.083-53.901 16.414-70.717 38.522-5.859 7.702-8.968 17.467-12.631 26.405l-13.426 32.759-36.195 88.316-12.83 31.304c-4.268 10.413-6.992 20.132-7.998 31.682-2.104 24.16 6.538 49.804 22.253 68.063l5.873 6.822 86.992 101.068 126.892 147.426 84.523 98.201 4.87 5.658c10.143 11.785 24.748 18.088 39.937 19.625 16.619 1.682 32.457-5.561 44.614-16.387 3.715-3.307 6.847-7.551 10.084-11.301l19.999-23.152c39.385-45.594 78.77-91.189 118.154-136.785l19.046-22.049c8.899-10.303 10.157-25.197 0-35.355-9.102-9.108-26.438-10.323-35.352-0.002z" fill="#151515" p-id="10995"></path><path d="M597 418.299a131.466 131.466 0 0 1-1.142 16.623c0.417-3.101 0.833-6.203 1.251-9.304a124.314 124.314 0 0 1-8.16 29.78c1.176-2.787 2.353-5.573 3.528-8.36a124.793 124.793 0 0 1-15.902 27.184l5.473-7.084a125.846 125.846 0 0 1-21.209 21.209l7.083-5.473a124.682 124.682 0 0 1-27.183 15.902l8.36-3.527a124.253 124.253 0 0 1-29.78 8.159l9.304-1.25a126.038 126.038 0 0 1-33.246 0l9.304 1.25a124.286 124.286 0 0 1-29.781-8.159l8.361 3.527a124.722 124.722 0 0 1-27.183-15.902l7.083 5.473a125.81 125.81 0 0 1-21.209-21.209l5.473 7.084a124.753 124.753 0 0 1-15.902-27.184l3.528 8.36a124.314 124.314 0 0 1-8.16-29.78l1.25 9.304a131.826 131.826 0 0 1-1.142-16.623c-0.109-19.078-15.838-35-35-35-18.996 0-35.109 15.92-35 35 0.319 55.51 30.594 107.818 79.054 135.143 48.765 27.498 111.4 26.11 158.653-4.06 44.621-28.489 71.989-78.147 72.293-131.083 0.11-19.08-16.004-35-35-35-19.161 0-34.89 15.922-34.999 35z" fill="#151515" p-id="10996"></path></svg>