<?xml version="1.0" standalone="no"?><!DOCTYPE svg PUBLIC "-//W3C//DTD SVG 1.1//EN" "http://www.w3.org/Graphics/SVG/1.1/DTD/svg11.dtd"><svg t="1745940199315" class="icon" viewBox="0 0 1024 1024" version="1.1" xmlns="http://www.w3.org/2000/svg" p-id="1496" xmlns:xlink="http://www.w3.org/1999/xlink" width="128" height="128"><path d="M719.99 834.76c-51.31 0-93.05-41.74-93.05-93.05s41.74-93.05 93.05-93.05 93.05 41.74 93.05 93.05-41.74 93.05-93.05 93.05z m0-141.1c-26.49 0-48.05 21.55-48.05 48.05s21.55 48.05 48.05 48.05 48.05-21.55 48.05-48.05-21.55-48.05-48.05-48.05zM284.45 834.76c-51.31 0-93.05-41.74-93.05-93.05s41.74-93.05 93.05-93.05 93.05 41.74 93.05 93.05-41.74 93.05-93.05 93.05z m0-141.1c-26.49 0-48.05 21.55-48.05 48.05s21.55 48.05 48.05 48.05 48.05-21.55 48.05-48.05-21.55-48.05-48.05-48.05z" fill="#333333" p-id="1497"></path><path d="M567.04 744.45H361.67c-12.43 0-22.5-10.07-22.5-22.5s10.07-22.5 22.5-22.5h182.87V257.24c0-3.82-3.11-6.93-6.93-6.93H157.02c-3.82 0-6.93 3.11-6.93 6.93v435.27c0 3.82 3.11 6.93 6.93 6.93h56.88c12.43 0 22.5 10.07 22.5 22.5s-10.07 22.5-22.5 22.5h-56.88c-28.63 0-51.93-23.3-51.93-51.93V257.24c0-28.63 23.3-51.93 51.93-51.93H537.6c28.63 0 51.93 23.3 51.93 51.93v464.7c0 12.43-10.07 22.5-22.5 22.5z" fill="#333333" p-id="1498"></path><path d="M839.97 744.21h-49.13c-12.43 0-22.5-10.07-22.5-22.5s10.07-22.5 22.5-22.5h49.13c2.6 0 4.28-1.35 5.05-2.16 0.77-0.8 2.04-2.53 1.92-5.1-2.78-63.72-15.01-227.52-68.49-371.93-5.14-13.87-18.61-23.19-33.53-23.19H568.2c-12.43 0-22.5-10.07-22.5-22.5s10.07-22.5 22.5-22.5h176.72c33.65 0 64.09 21.12 75.73 52.56 55.7 150.39 68.38 319.76 71.25 385.6 0.62 14.29-4.48 27.85-14.38 38.18-9.76 10.19-23.44 16.04-37.55 16.04zM652.32 744.21h-89c-12.43 0-22.5-10.07-22.5-22.5s10.07-22.5 22.5-22.5h89c12.43 0 22.5 10.07 22.5 22.5s-10.07 22.5-22.5 22.5z" fill="#333333" p-id="1499"></path><path d="M831.04 467.73h-65.66c-44.77 0-81.2-36.42-81.2-81.2V283.48c0-12.43 10.07-22.5 22.5-22.5s22.5 10.07 22.5 22.5v103.05c0 19.96 16.24 36.2 36.2 36.2h65.66c12.43 0 22.5 10.07 22.5 22.5s-10.07 22.5-22.5 22.5z" fill="#333333" p-id="1500"></path></svg>