<?xml version="1.0" standalone="no"?><!DOCTYPE svg PUBLIC "-//W3C//DTD SVG 1.1//EN" "http://www.w3.org/Graphics/SVG/1.1/DTD/svg11.dtd"><svg t="1745940545002" class="icon" viewBox="0 0 1024 1024" version="1.1" xmlns="http://www.w3.org/2000/svg" p-id="3367" xmlns:xlink="http://www.w3.org/1999/xlink" width="128" height="128"><path d="M571.92 350.49H298.63c-12.43 0-22.5-10.07-22.5-22.5s10.07-22.5 22.5-22.5h273.29c12.43 0 22.5 10.07 22.5 22.5s-10.07 22.5-22.5 22.5zM571.92 469.87H298.63c-12.43 0-22.5-10.07-22.5-22.5s10.07-22.5 22.5-22.5h273.29c12.43 0 22.5 10.07 22.5 22.5s-10.07 22.5-22.5 22.5zM410.77 589.24H298.64c-12.43 0-22.5-10.07-22.5-22.5s10.07-22.5 22.5-22.5h112.13c12.43 0 22.5 10.07 22.5 22.5s-10.07 22.5-22.5 22.5zM410.77 708.61H298.64c-12.43 0-22.5-10.07-22.5-22.5s10.07-22.5 22.5-22.5h112.13c12.43 0 22.5 10.07 22.5 22.5s-10.07 22.5-22.5 22.5z" fill="#333333" p-id="3368"></path><path d="M548.3 851.63H241.91c-62.29 0-112.97-50.68-112.97-112.97V262.03c0-62.29 50.68-112.97 112.97-112.97h385.87c62.29 0 112.97 50.68 112.97 112.97v290.48c0 12.43-10.07 22.5-22.5 22.5s-22.5-10.07-22.5-22.5V262.03c0-37.48-30.49-67.97-67.97-67.97H241.91c-37.48 0-67.97 30.49-67.97 67.97v476.64c0 37.48 30.49 67.97 67.97 67.97H548.3c12.43 0 22.5 10.07 22.5 22.5s-10.07 22.5-22.5 22.5z" fill="#333333" p-id="3369"></path><path d="M719.21 712.04c-46.98 0-91.47-6.53-125.27-18.4-17.83-6.26-32.17-13.83-42.63-22.5-17.54-14.56-21.23-29.83-21.23-40.08 0-18.33 11.08-44.06 63.85-62.58 33.8-11.86 78.29-18.4 125.27-18.4s91.47 6.53 125.27 18.4c17.83 6.26 32.17 13.83 42.63 22.5 17.54 14.56 21.23 29.83 21.23 40.08 0 18.33-11.08 44.06-63.85 62.58-33.8 11.86-78.29 18.4-125.27 18.4z m-144.06-80.98c1.13 2.69 9.81 12.5 38.36 21.69 28.63 9.21 66.16 14.29 105.7 14.29s77.07-5.07 105.7-14.29c28.55-9.19 37.24-19 38.36-21.69-1.12-2.69-9.81-12.5-38.36-21.69-28.62-9.21-66.16-14.29-105.7-14.29s-77.07 5.07-105.7 14.29c-28.55 9.19-37.24 19-38.36 21.69z m288.21 0.28z" fill="#333333" p-id="3370"></path><path d="M719.21 811.36c-48.09 0-93.62-6.69-128.22-18.82-18.21-6.39-32.85-14.12-43.52-22.97-17.81-14.78-21.55-30.26-21.55-40.65 0-13.74 6.38-33.75 36.76-51.01 10.8-6.14 24.54-2.36 30.68 8.45 6.14 10.8 2.36 24.54-8.45 30.68-10.2 5.8-13.49 10.47-13.96 11.89 0.8 2.55 9.14 12.77 38.9 22.49 29.5 9.64 68.34 14.95 109.36 14.95s79.86-5.31 109.36-14.95c29.75-9.72 38.09-19.93 38.9-22.49-0.44-1.33-3.43-5.65-12.59-11.09-10.68-6.35-14.2-20.15-7.85-30.84 6.35-10.68 20.16-14.2 30.84-7.85 28.62 17.01 34.63 36.46 34.63 49.77 0 18.6-11.29 44.74-65.07 63.61-34.59 12.14-80.12 18.82-128.21 18.82z m148.3-82.28z" fill="#333333" p-id="3371"></path><path d="M719.21 910.46c-48.09 0-93.62-6.69-128.22-18.82-18.21-6.39-32.85-14.12-43.52-22.97-17.81-14.78-21.55-30.26-21.55-40.65 0-13.74 6.38-33.75 36.76-51.01 10.8-6.14 24.54-2.36 30.68 8.45 6.14 10.8 2.36 24.54-8.45 30.68-10.2 5.8-13.49 10.47-13.96 11.89 0.8 2.55 9.14 12.77 38.9 22.49 29.5 9.64 68.34 14.95 109.36 14.95s79.86-5.31 109.36-14.95c29.75-9.72 38.09-19.93 38.9-22.49-0.44-1.33-3.43-5.65-12.59-11.09-10.68-6.35-14.2-20.15-7.85-30.84 6.35-10.68 20.16-14.2 30.84-7.85 28.62 17.01 34.63 36.46 34.63 49.77 0 18.6-11.29 44.74-65.07 63.61-34.59 12.14-80.12 18.82-128.21 18.82z m148.3-82.28z" fill="#333333" p-id="3372"></path></svg>