<?xml version="1.0" standalone="no"?><!DOCTYPE svg PUBLIC "-//W3C//DTD SVG 1.1//EN" "http://www.w3.org/Graphics/SVG/1.1/DTD/svg11.dtd"><svg t="1745940526800" class="icon" viewBox="0 0 1024 1024" version="1.1" xmlns="http://www.w3.org/2000/svg" p-id="3197" xmlns:xlink="http://www.w3.org/1999/xlink" width="128" height="128"><path d="M600.43 853.48c-0.69 0-1.38-0.01-2.08-0.03l-66.02-2.03c-35.95-1.1-65.15-30.12-66.46-66.07l-2.43-66.34c-0.69-18.99 6.61-37.59 20.05-51.02l208.57-208.57c26.75-26.75 70.28-26.75 97.03 0l68.41 68.41c12.96 12.96 20.1 30.19 20.1 48.51 0 18.33-7.14 35.56-20.1 48.51L648.98 833.38c-12.84 12.84-30.43 20.09-48.54 20.09z m140.14-369.14c-6.05 0-12.09 2.3-16.69 6.9L515.31 699.81a23.687 23.687 0 0 0-6.9 17.56l2.43 66.34c0.45 12.37 10.5 22.36 22.87 22.74l66.02 2.03a23.77 23.77 0 0 0 17.42-6.9l208.53-208.53c4.46-4.46 6.92-10.39 6.92-16.69s-2.46-12.24-6.92-16.69l-68.41-68.41c-4.6-4.6-10.65-6.9-16.69-6.9zM499.4 683.9z" fill="#333333" p-id="3198"></path><path d="M521.5 852H222.11c-44.73 0-81.11-36.39-81.11-81.11V246.11c0-44.73 36.39-81.11 81.11-81.11h477.77c44.73 0 81.11 36.39 81.11 81.11V461.5c0 12.43-10.07 22.5-22.5 22.5s-22.5-10.07-22.5-22.5V246.11c0-19.91-16.2-36.11-36.11-36.11H222.11C202.2 210 186 226.2 186 246.11v524.78c0 19.91 16.2 36.11 36.11 36.11H521.5c12.43 0 22.5 10.07 22.5 22.5S533.93 852 521.5 852z" fill="#333333" p-id="3199"></path><path d="M622.21 346H300.5c-12.43 0-22.5-10.07-22.5-22.5s10.07-22.5 22.5-22.5h321.71c12.43 0 22.5 10.07 22.5 22.5s-10.07 22.5-22.5 22.5zM508.5 484h-208c-12.43 0-22.5-10.07-22.5-22.5s10.07-22.5 22.5-22.5h208c12.43 0 22.5 10.07 22.5 22.5S520.93 484 508.5 484z" fill="#333333" p-id="3200"></path></svg>