<?xml version="1.0" standalone="no"?><!DOCTYPE svg PUBLIC "-//W3C//DTD SVG 1.1//EN" "http://www.w3.org/Graphics/SVG/1.1/DTD/svg11.dtd"><svg t="1745940223930" class="icon" viewBox="0 0 1024 1024" version="1.1" xmlns="http://www.w3.org/2000/svg" p-id="1667" xmlns:xlink="http://www.w3.org/1999/xlink" width="128" height="128"><path d="M495.59 842.87c-12.43 0-22.5-10.07-22.5-22.5V446.9c0-12.43 10.07-22.5 22.5-22.5s22.5 10.07 22.5 22.5v373.47c0 12.43-10.07 22.5-22.5 22.5zM670.55 517.5c-12.43 0-22.5-10.07-22.5-22.5V385.21c0-12.43 10.07-22.5 22.5-22.5s22.5 10.07 22.5 22.5V495c0 12.43-10.07 22.5-22.5 22.5z" fill="#333333" p-id="1668"></path><path d="M496.11 848.18c-11.11 0-22.22-2.02-32.79-6.06L165.54 728.3c-22.02-8.42-36.82-29.91-36.82-53.49V300.54c0-12.43 10.07-22.5 22.5-22.5s22.5 10.07 22.5 22.5v374.27c0 5.05 3.17 9.65 7.89 11.46l297.78 113.82a46.781 46.781 0 0 0 33.44 0l297.78-113.82c4.72-1.8 7.89-6.41 7.89-11.46V300.54c0-12.43 10.07-22.5 22.5-22.5s22.5 10.07 22.5 22.5v374.27c0 23.58-14.8 45.07-36.82 53.49L528.9 842.12a91.807 91.807 0 0 1-32.79 6.06z" fill="#333333" p-id="1669"></path><path d="M841 323c-2.67 0-5.38-0.48-8.03-1.49l-320.48-122.5a45.763 45.763 0 0 0-32.75 0l-320.48 122.5c-11.61 4.44-24.61-1.38-29.05-12.98-4.44-11.61 1.38-24.61 12.98-29.05l320.48-122.5c20.92-8 43.96-8 64.88 0l320.48 122.5c11.61 4.44 17.42 17.44 12.98 29.05-3.43 8.96-11.96 14.47-21.02 14.47z" fill="#333333" p-id="1670"></path><path d="M485.45 464.36c-2.69 0-5.43-0.49-8.1-1.51L143.12 333.86c-11.59-4.47-17.36-17.5-12.89-29.09 4.47-11.59 17.5-17.36 29.09-12.89l334.23 128.98c11.59 4.47 17.36 17.5 12.89 29.09-3.45 8.93-11.97 14.41-21 14.41zM679.11 393.14c-2.69 0-5.43-0.49-8.1-1.51L323.7 257.6c-11.59-4.47-17.36-17.5-12.89-29.09 4.47-11.59 17.5-17.36 29.09-12.89l347.31 134.03c11.59 4.47 17.36 17.5 12.89 29.09-3.45 8.93-11.97 14.41-21 14.41z" fill="#333333" p-id="1671"></path><path d="M496.34 472.36c-9.03 0-17.55-5.48-21-14.41-4.47-11.59 1.3-24.62 12.89-29.09l334.23-128.98c11.6-4.47 24.62 1.3 29.09 12.89 4.47 11.59-1.3 24.62-12.89 29.09L504.43 470.84c-2.66 1.03-5.4 1.51-8.1 1.51z" fill="#333333" p-id="1672"></path></svg>