<?xml version="1.0" standalone="no"?><!DOCTYPE svg PUBLIC "-//W3C//DTD SVG 1.1//EN" "http://www.w3.org/Graphics/SVG/1.1/DTD/svg11.dtd"><svg t="1745940271512" class="icon" viewBox="0 0 1024 1024" version="1.1" xmlns="http://www.w3.org/2000/svg" p-id="1839" xmlns:xlink="http://www.w3.org/1999/xlink" width="128" height="128"><path d="M493.75 889.95c-26.77 0-53.52-6.89-77.4-20.67L214.16 752.55c-47.74-27.56-77.4-78.93-77.4-134.06V385.02c0-55.13 29.66-106.49 77.4-134.06l202.19-116.73c47.74-27.56 107.06-27.56 154.8 0l202.19 116.73c47.74 27.56 77.4 78.93 77.4 134.06v233.47c0 55.13-29.66 106.49-77.4 134.06L571.15 869.28c-23.87 13.78-50.64 20.67-77.4 20.67z m0-731.42c-18.98 0-37.97 4.89-54.9 14.66L236.66 289.92c-33.86 19.55-54.9 55.99-54.9 95.09v233.47c0 39.1 21.04 75.54 54.9 95.09L438.85 830.3c33.86 19.55 75.94 19.55 109.8 0l202.19-116.73c33.86-19.55 54.9-55.99 54.9-95.09V385.01c0-39.1-21.04-75.54-54.9-95.09L548.65 173.19c-16.93-9.78-35.92-14.66-54.9-14.66z" fill="#333333" p-id="1840"></path><path d="M493.75 656.07c-85.09 0-154.32-69.23-154.32-154.32s69.23-154.32 154.32-154.32 154.32 69.23 154.32 154.32-69.23 154.32-154.32 154.32z m0-263.63c-60.28 0-109.32 49.04-109.32 109.32s49.04 109.32 109.32 109.32 109.32-49.04 109.32-109.32-49.04-109.32-109.32-109.32z" fill="#333333" p-id="1841"></path></svg>