<?xml version="1.0" standalone="no"?><!DOCTYPE svg PUBLIC "-//W3C//DTD SVG 1.1//EN" "http://www.w3.org/Graphics/SVG/1.1/DTD/svg11.dtd"><svg t="1745940343997" class="icon" viewBox="0 0 1024 1024" version="1.1" xmlns="http://www.w3.org/2000/svg" p-id="2177" xmlns:xlink="http://www.w3.org/1999/xlink" width="128" height="128"><path d="M859.29 448h-731.4c-12.43 0-22.5-10.07-22.5-22.5s10.07-22.5 22.5-22.5h731.4c12.43 0 22.5 10.07 22.5 22.5s-10.07 22.5-22.5 22.5z" fill="#333333" p-id="2178"></path><path d="M739.74 832.38H250.33c-81.06 0-147.01-65.95-147.01-147.01V374.62c0-81.06 65.95-147.01 147.01-147.01h489.41c81.06 0 147.01 65.95 147.01 147.01v310.75c0 81.06-65.95 147.01-147.01 147.01zM250.33 272.61c-56.25 0-102.01 45.76-102.01 102.01v310.75c0 56.25 45.76 102.01 102.01 102.01h489.41c56.25 0 102.01-45.76 102.01-102.01V374.62c0-56.25-45.76-102.01-102.01-102.01H250.33z" fill="#333333" p-id="2179"></path><path d="M311.75 348.8c-12.43 0-22.5-10.07-22.5-22.5V173c0-12.43 10.07-22.5 22.5-22.5s22.5 10.07 22.5 22.5v153.3c0 12.43-10.07 22.5-22.5 22.5zM668.1 348.8c-12.43 0-22.5-10.07-22.5-22.5V173c0-12.43 10.07-22.5 22.5-22.5s22.5 10.07 22.5 22.5v153.3c0 12.43-10.07 22.5-22.5 22.5zM450.79 728.56c-5.6 0-11.2-2.08-15.56-6.25l-87.96-84.27c-8.97-8.6-9.28-22.84-0.68-31.81s22.84-9.28 31.81-0.68l87.96 84.27c8.97 8.6 9.28 22.84 0.68 31.81a22.442 22.442 0 0 1-16.25 6.93z" fill="#333333" p-id="2180"></path><path d="M451.16 728.73c-5.92 0-11.83-2.32-16.25-6.93-8.6-8.97-8.29-23.22 0.68-31.81l180.62-173.05c8.97-8.6 23.22-8.29 31.81 0.68 8.6 8.97 8.29 23.22-0.68 31.81L466.72 722.48a22.416 22.416 0 0 1-15.56 6.25z" fill="#333333" p-id="2181"></path></svg>