<?xml version="1.0" standalone="no"?><!DOCTYPE svg PUBLIC "-//W3C//DTD SVG 1.1//EN" "http://www.w3.org/Graphics/SVG/1.1/DTD/svg11.dtd"><svg t="1753533942969" class="icon" viewBox="0 0 1024 1024" version="1.1" xmlns="http://www.w3.org/2000/svg" p-id="5799" xmlns:xlink="http://www.w3.org/1999/xlink" width="128" height="128"><path d="M353.72 791a80.13 80.13 0 0 1-28.67-5.05c-28.72-10.5-47.61-38.52-50.8-43.52-39.18-58-69.33-139.69-89.61-242.81-14.64-74.4-18.49-132.24-18.79-137.11-1.94-24.67 0.63-59.4 23.73-85.21 13.22-14.78 27.54-20.24 32.47-21.77 34.58-12 65.82 2.91 79.56 14.17 56 41.23 126.5 136.68 175.87 209.63a25 25 0 1 1-41.42 28c-66.9-98.88-125.35-169.11-164.59-197.75a13.09 13.09 0 0 1-1.36-1.05c-1.66-1.29-15.64-11.5-31.91-5.7a7.9 7.9 0 0 1-1.59 0.53c-3.88 1.49-24.41 11.5-20.9 55.37v0.48c0.14 2.28 14.93 229.64 100.13 355.5 0.21 0.3 0.3 0.44 0.48 0.74 3.12 4.87 14.44 19.44 26 23.57a7.94 7.94 0 0 1 0.85 0.32c2.84 1 20 6 35.61-8.57 0.3-0.29 0.62-0.57 0.94-0.84 0.57-0.49 62.08-53.58 113.08-157A25 25 0 1 1 537.68 595c-54 109.51-118.28 166.69-125.15 172.62A85.42 85.42 0 0 1 353.72 791z m-10.34-51.57zM270 308.39z m-33.71-5z" p-id="5800" fill="#151515"></path><path d="M682 789.93c-17.16 0-38.77-5.65-58.93-24.35-3.82-3.34-32.81-29.15-65.41-69.66a25 25 0 0 1 39-31.34c31.23 38.82 59.27 63.28 59.55 63.52l0.71 0.64c15 14 28.12 11.24 30.84 10.46a5.89 5.89 0 0 1 0.61-0.21c10.88-3.89 22.4-17.79 26-23.53 0.16-0.27 0.33-0.53 0.5-0.78 85.21-125.86 100-353.22 100.13-355.5v-0.48c3.51-43.87-17-53.88-20.9-55.37a7.9 7.9 0 0 1-1.59-0.53c-16.27-5.8-30.25 4.41-31.91 5.7a17 17 0 0 1-2.71 2c-39.36 25-89.84 82.33-146 165.91-43.33 64.51-74.65 122-75 122.55A25 25 0 0 1 493 575.07c5.25-9.67 129.32-236.65 236.8-306 14.08-11.19 44.86-25.42 78.85-13.61 4.93 1.53 19.25 7 32.47 21.77 23.11 25.81 25.67 60.54 23.73 85.21-0.3 4.87-4.15 62.71-18.78 137.11-20.29 103.11-50.44 184.81-89.61 242.81-3.19 5-22.12 33.07-50.89 43.55a66.72 66.72 0 0 1-23.57 4.02z m5.43-50.6z m73.27-430.94z m33.71-5z" p-id="5801" fill="#151515"></path></svg>