<?xml version="1.0" standalone="no"?><!DOCTYPE svg PUBLIC "-//W3C//DTD SVG 1.1//EN" "http://www.w3.org/Graphics/SVG/1.1/DTD/svg11.dtd"><svg t="1745460525673" class="icon" viewBox="0 0 1024 1024" version="1.1" xmlns="http://www.w3.org/2000/svg" p-id="9204" xmlns:xlink="http://www.w3.org/1999/xlink" width="64" height="64"><path d="M288 288 160 288c-17.664 0-32 14.336-32 32l0 544c0 17.696 14.336 32 32 32l128 0c17.664 0 32-14.304 32-32L320 320C320 302.336 305.664 288 288 288z" fill="#3889ff" p-id="9205" data-spm-anchor-id="a313x.collections_detail.0.i20.154a3a81cJuByH" class=""></path><path d="M576 480l-128 0c-17.664 0-32 14.336-32 32l0 352c0 17.696 14.336 32 32 32l128 0c17.696 0 32-14.304 32-32L608 512C608 494.336 593.696 480 576 480z" fill="#3889ff" p-id="9206" data-spm-anchor-id="a313x.collections_detail.0.i21.154a3a81cJuByH" class=""></path><path d="M864 128l-128 0c-17.696 0-32 14.336-32 32l0 704c0 17.696 14.304 32 32 32l128 0c17.696 0 32-14.304 32-32L896 160C896 142.336 881.696 128 864 128z" fill="#52c41a" p-id="9207" data-spm-anchor-id="a313x.collections_detail.0.i22.154a3a81cJuByH" class=""></path></svg>