<?xml version="1.0" standalone="no"?><!DOCTYPE svg PUBLIC "-//W3C//DTD SVG 1.1//EN" "http://www.w3.org/Graphics/SVG/1.1/DTD/svg11.dtd"><svg t="1745460324792" class="icon" viewBox="0 0 1024 1024" version="1.1" xmlns="http://www.w3.org/2000/svg" p-id="8311" xmlns:xlink="http://www.w3.org/1999/xlink" width="64" height="64"><path d="M952.832 352.768c-0.064-0.48-0.16-0.928-0.256-1.312-0.384-1.856-0.896-3.648-1.632-5.376L875.936 159.36c-12.96-38.592-48.832-62.56-93.952-62.56L255.488 96.8c-44.224 0-78.592 23.52-91.04 60.704l-80.64 190.528c-0.384 1.12-0.8 2.784-1.152 4.48-5.856 17.984-8.8 36.448-8.8 54.976 0.064 65.184 35.84 124.704 93.28 155.264 23.648 12.672 51.52 19.072 82.816 19.072 0.032 0 0.064 0 0.096 0 52.512-0.128 101.152-23.2 134.304-62.688 32.992 39.136 81.248 62.08 133.664 62.4 52-0.384 100.096-23.424 132.96-62.56 33.152 39.488 81.856 62.496 134.624 62.496 31.936-0.192 60.288-6.88 84.16-20 56.576-30.88 91.68-90.176 91.648-154.656C961.44 388.256 958.4 369.696 952.832 352.768zM766.432 383.968 254.4 383.968c-17.664 0-32-14.336-32-32s14.336-32 32-32l512.032 0c17.696 0 32 14.336 32 32S784.128 383.968 766.432 383.968z" p-id="8312" data-spm-anchor-id="a313x.collections_detail.0.i14.154a3a81cJuByH" class="" fill="#3889ff"></path><path d="M895.072 640c0-17.696-14.304-32-32-32-3.296 0-6.272 0.928-9.248 1.888l0 0c-23.712 9.376-54.048 14.432-76.928 13.184-50.432-2.688-88.864-12.736-125.888-44.256-36.512 31.136-83.104 48.864-132.704 49.312-50.304-0.32-97.152-12.928-133.856-44.128-36.928 31.488-84.064 46.816-134.272 46.816L249.984 630.816c-30.656 0-47.936-5.824-75.84-16.128-0.768-0.384-1.568-0.576-2.368-0.864-1.344-0.512-2.368-0.864-3.744-1.376 0 0-4.608-0.8-7.136-0.8 0 0-0.032 0-0.064 0-17.664 0-31.968 14.368-31.936 32.064l0.224 171.488c0 45.12 36.768 81.824 81.984 81.824l602.176-0.384c45.152-0.128 81.888-36.928 81.888-82.048L895.072 640z" p-id="8313" data-spm-anchor-id="a313x.collections_detail.0.i15.154a3a81cJuByH" class="" fill="#52c41a"></path></svg>