<?xml version="1.0" standalone="no"?><!DOCTYPE svg PUBLIC "-//W3C//DTD SVG 1.1//EN" "http://www.w3.org/Graphics/SVG/1.1/DTD/svg11.dtd"><svg t="1745639803099" class="icon" viewBox="0 0 1024 1024" version="1.1" xmlns="http://www.w3.org/2000/svg" p-id="2899" xmlns:xlink="http://www.w3.org/1999/xlink" width="128" height="128"><path d="M522.78 805.254c-7.042 7.098-18.518 7.098-25.56 0C322.06 628.676 234 491.268 234 390c0-152.43 123.57-276 276-276s276 123.57 276 276c0 101.268-88.06 238.676-263.22 415.254zM750 390c0-132.548-107.452-240-240-240S270 257.452 270 390c0 86.45 79.704 213.028 240 376.927C670.296 603.027 750 476.45 750 390z" fill="#333333" p-id="2900"></path><path d="M512 518c-67.379 0-122-54.621-122-122 0-67.379 54.621-122 122-122 67.379 0 122 54.621 122 122 0 67.379-54.621 122-122 122z m0-36c47.496 0 86-38.504 86-86s-38.504-86-86-86-86 38.504-86 86 38.504 86 86 86z" fill="#1296db" p-id="2901" data-spm-anchor-id="a313x.collections_detail.0.i10.1fde3a8137Nb7U" class=""></path><path d="M752.72 728.691c-5.255-8.439-2.673-19.54 5.766-24.794 8.44-5.254 19.54-2.673 24.794 5.767l106.233 170.622c7.465 11.99-1.157 27.514-15.28 27.514h-724.2c-13.978 0-22.622-15.236-15.452-27.234L236.55 709.943c5.1-8.533 16.151-11.316 24.685-6.217 8.533 5.1 11.317 16.152 6.217 24.685L181.76 871.8H841.82L752.72 728.691z" fill="#333333" p-id="2902"></path></svg>