<?xml version="1.0" standalone="no"?><!DOCTYPE svg PUBLIC "-//W3C//DTD SVG 1.1//EN" "http://www.w3.org/Graphics/SVG/1.1/DTD/svg11.dtd"><svg t="1745639508788" class="icon" viewBox="0 0 1024 1024" version="1.1" xmlns="http://www.w3.org/2000/svg" p-id="1401" xmlns:xlink="http://www.w3.org/1999/xlink" width="128" height="128"><path d="M958.2 341.6C827.6 122.3 683.2 11 528.9 11 283.1 11 98.6 290.8 67.2 341.6H1.4v312.9h148.8V341.6h-46.6c49.2-73.8 217.1-300.2 425.2-300.2 139.2 0 271.5 101.1 393.6 300.2h-47.2v312.9h62c-9.6 152.1-160.7 273.8-347.5 278.2-5.8-37.5-37.9-66.3-77-66.3-43.1 0-78.2 35.1-78.2 78.2s35.1 78.2 78.2 78.2c39.4 0 71.7-29.3 77.1-67.2 199.4-4.5 360.8-136.3 370.3-301h63.9v-313h-65.8z m-838.5 30.5V624H31.9V372.1h87.8z m393 627.7c-30.5 0-55.3-24.8-55.3-55.3 0-30.5 24.8-55.3 55.3-55.3 30.5 0 55.3 24.8 55.3 55.3 0 30.5-24.8 55.3-55.3 55.3zM993.5 624h-87.7V372.1h87.7V624z m0 0" fill="#323333" p-id="1402"></path><path d="M787.5 615l-22.9-20.1C574.4 812.2 386 680.7 324.1 637.5c-18.5-12.9-25.5-17.8-35.4-12.6l-8.6 14.4h18.1l-6.2 13.5c2.8 1.3 7.7 4.9 14.6 9.7 80.4 56.1 157 84.1 229.4 84.1 90.6 0 174.7-43.9 251.5-131.6z m-483.7 36.2l-5.4-12h12.1c0 4.8-2.6 9.4-6.7 12z m0 0" fill="#1296db" p-id="1403" data-spm-anchor-id="a313x.collections_detail.0.i2.11903a819iJTuw" class="selected"></path></svg>