<?xml version="1.0" standalone="no"?><!DOCTYPE svg PUBLIC "-//W3C//DTD SVG 1.1//EN" "http://www.w3.org/Graphics/SVG/1.1/DTD/svg11.dtd"><svg t="1752937687922" class="icon" viewBox="0 0 1024 1024" version="1.1" xmlns="http://www.w3.org/2000/svg" p-id="5583" width="64" height="64" xmlns:xlink="http://www.w3.org/1999/xlink"><path d="M181.11 816.38a27.6 27.6 0 0 1-26.79-34.32l55.24-221a27.58 27.58 0 0 1 7.26-12.84l441.94-441.9a27.61 27.61 0 0 1 39.06 0L863.55 272a27.62 27.62 0 0 1 0 39.07L421.61 753a27.66 27.66 0 0 1-12.83 7.27l-221 55.24a27.51 27.51 0 0 1-6.7 0.83z m80.19-234.47l-42.22 168.88L388 708.57l417-417-126.71-126.66z" p-id="5584" fill="#151515"></path><path d="M761.16 402.06a27.55 27.55 0 0 1-19.54-8.06L575.9 228.24a27.62 27.62 0 0 1 39.1-39.06l165.69 165.73a27.62 27.62 0 0 1-19.53 47.15zM402.08 761.13a27.53 27.53 0 0 1-19.53-8.13L216.82 587.32a27.63 27.63 0 0 1 39.07-39.07L421.61 714a27.62 27.62 0 0 1-19.53 47.15z m497.18 165.73H457.32a27.62 27.62 0 1 1 0-55.24h441.94a27.62 27.62 0 0 1 0 55.24z m-552.42 0h-221a27.62 27.62 0 1 1 0-55.24h221a27.62 27.62 0 0 1 0 55.24z" p-id="5585" fill="#151515"></path></svg>