<?xml version="1.0" standalone="no"?><!DOCTYPE svg PUBLIC "-//W3C//DTD SVG 1.1//EN" "http://www.w3.org/Graphics/SVG/1.1/DTD/svg11.dtd"><svg t="1746251729471" class="icon" viewBox="0 0 1024 1024" version="1.1" xmlns="http://www.w3.org/2000/svg" p-id="8970" width="256" height="256" xmlns:xlink="http://www.w3.org/1999/xlink"><path d="M587.3664 270.7456l77.4144 34.816 126.5664-99.9424-96.6656 104.448 96.6656 31.9488 52.8384-193.7408-256.8192 122.4704z m106.496 63.488L688.128 393.6256l33.5872-43.4176-27.8528-15.9744z m-315.8016 305.9712c-11.0592 6.5536-22.1184 11.8784-33.5872 17.2032l3.2768 8.192c12.288-4.9152 24.1664-10.6496 35.6352-17.2032-0.8192-0.8192-5.3248-8.192-5.3248-8.192z m43.4176-29.4912c-9.0112 7.3728-18.432 13.9264-28.672 19.6608-2.048 1.2288-2.8672 4.096-1.6384 6.144 1.2288 2.048 4.096 2.8672 6.144 1.6384h0.4096c10.24-6.5536 20.0704-13.5168 29.0816-20.8896 0.8192-0.4096 1.6384-1.2288 2.048-2.4576 0-1.2288 0-2.4576-1.2288-3.2768-2.048-2.4576-3.6864-2.4576-6.144-0.8192z m50.7904-47.5136c-2.048-1.2288-4.5056-0.8192-6.5536 0.8192-7.7824 11.0592-16.7936 21.2992-26.624 30.3104-1.6384 1.6384-1.6384 4.5056 0 6.5536 1.6384 1.6384 4.5056 1.6384 6.5536 0 10.24-9.8304 19.6608-20.8896 27.8528-32.3584 1.2288-0.8192 0-4.096-1.2288-5.3248z m20.8896-99.9424c0 2.048 2.048 4.096 4.096 4.096h0.8192c1.2288 0 2.4576-0.8192 3.2768-2.048 0.8192-1.2288 1.2288-2.4576 0.8192-3.6864-1.2288-17.6128-9.0112-34.4064-21.7088-47.104-2.048-1.6384-5.3248-1.2288-6.5536 1.2288-0.4096 0.8192-0.8192 1.6384-0.8192 2.8672 0 1.2288 0.8192 2.4576 2.048 2.4576 10.24 11.4688 16.384 26.624 18.0224 42.1888zM418.2016 417.792c0.8192 0 1.6384 0 2.4576-0.8192 11.8784-5.3248 24.9856-6.5536 37.6832-3.6864 2.4576 0.8192 4.9152-0.8192 4.9152-3.2768 0.8192-2.4576-0.8192-4.9152-3.2768-4.9152-14.7456-3.6864-30.3104-2.4576-43.8272 3.6864-2.4576 0.8192-3.2768 3.6864-2.4576 6.5536 1.2288 1.2288 2.8672 2.048 4.5056 2.4576z m-25.3952 46.6944c-0.4096-3.6864-0.8192-7.7824-0.8192-11.4688l4.5056-14.7456c2.4576-3.6864 4.5056-6.9632 6.9632-10.24 1.6384-1.6384 1.6384-4.5056 0-6.5536-1.6384-1.6384-4.5056-1.6384-6.5536 0-11.8784 11.0592-16.7936 27.8528-13.5168 43.8272 0.8192 2.4576 3.2768 3.6864 5.7344 2.8672 2.4576 0 3.6864-1.6384 3.6864-3.6864z m1.6384 15.9744c-2.048 1.2288-2.8672 3.6864-1.6384 6.144 0 0 0 0.4096 0.4096 0.4096 5.3248 7.7824 11.8784 14.7456 19.2512 20.8896 3.2768 2.4576 4.9152 4.5056 8.192 6.9632 2.048 1.2288 4.5056 0.8192 6.5536-0.8192 1.2288-1.2288 0.8192-4.5056-0.8192-6.5536-3.2768-2.4576-4.9152-3.6864-8.192-6.5536-6.5536-5.3248-12.6976-11.4688-17.6128-18.432-1.6384-2.4576-4.5056-3.2768-6.144-2.048z m72.0896 53.6576c2.4576 0 4.096-2.048 4.5056-4.5056 0-2.4576-1.2288-4.5056-3.6864-4.5056-9.0112-1.6384-18.0224-4.5056-26.624-8.192-2.4576-0.8192-5.3248 0.4096-6.144 2.8672-0.8192 2.4576 0 4.9152 2.4576 6.144 9.0112 2.4576 19.2512 6.144 29.4912 8.192z m34.816-13.1072c-1.2288 0.8192-3.6864 0.8192-4.9152 1.2288 2.8672-10.6496 5.3248-21.7088 6.5536-33.1776 0-2.4576-2.048-4.5056-4.5056-4.5056s-4.5056 2.048-4.5056 4.5056c-0.8192 12.288-3.2768 24.1664-7.7824 35.6352h-4.9152c-2.4576 0-4.5056 2.048-4.5056 4.5056s2.048 4.5056 4.5056 4.5056h1.2288c-1.6384 4.5056-3.6864 9.0112-6.5536 13.5168-0.8192 2.4576 0.4096 5.3248 2.4576 6.5536 2.048 0.4096 4.5056 0 6.5536-1.2288 3.2768-5.7344 6.144-11.4688 8.192-17.6128l11.4688-2.4576c2.4576-0.4096 3.6864-2.8672 3.2768-4.9152-0.8192-5.7344-4.096-6.9632-6.5536-6.5536z m54.8864-31.1296c-9.8304 8.6016-20.48 16.384-31.9488 22.9376-2.048 1.6384-2.4576 4.5056-1.2288 6.5536s4.096 2.4576 6.144 1.2288c12.288-6.5536 23.3472-14.7456 33.5872-24.1664 0.8192-0.4096 1.6384-1.2288 2.048-2.4576 0-1.2288 0-2.4576-1.2288-3.2768-3.2768-2.4576-6.144-2.4576-7.3728-0.8192z m46.6944-46.2848c-2.048-1.2288-4.5056-0.8192-6.5536 0.8192-7.7824 9.4208-15.1552 19.2512-24.1664 28.672-1.6384 1.6384-1.6384 4.5056 0 6.5536 1.6384 1.6384 4.5056 1.6384 6.5536 0 8.192-8.192 15.9744-18.432 24.9856-29.0816 0.8192-0.8192 1.2288-2.048 1.2288-3.2768 0-1.6384-0.8192-2.8672-2.048-3.6864z m37.6832-58.9824c-2.048-1.2288-4.9152-0.8192-6.5536 1.2288-6.9632 13.5168-15.1552 25.3952-22.9376 37.6832-1.6384 2.048-1.2288 4.9152 0.8192 6.144 2.048 1.6384 4.5056 1.2288 6.144-0.8192 8.192-11.8784 15.9744-25.3952 23.3472-38.912 1.2288-1.2288 1.6384-3.2768 0.4096-4.9152 0 0-0.8192-0.4096-1.2288-0.4096z m29.0816-59.8016c-2.4576-0.8192-5.3248 0.4096-6.5536 2.4576 0 0-6.5536 14.7456-15.9744 34.4064-1.2288 2.4576 0 5.3248 2.4576 6.5536 2.4576 1.2288 5.3248 0 6.5536-2.4576 10.6496-20.8896 17.2032-34.816 17.2032-35.6352 0.4096-1.6384-0.8192-3.2768-3.6864-5.3248zM145.408 995.328h-15.1552v-177.3568h15.1552V995.328z m3.2768-191.2832l-14.7456-4.5056 30.3104-91.3408c14.336-41.7792 27.8528-83.1488 41.3696-125.3376l14.7456 4.5056c-14.336 41.7792-27.8528 83.1488-41.3696 125.3376l-30.3104 91.3408z" p-id="8971"></path><path d="M130.2528 819.2c-0.4096-6.144 0.8192-12.6976 3.2768-18.432l0.8192-1.2288 14.7456 4.5056-0.8192 2.4576c-1.6384 3.6864-2.4576 7.7824-2.4576 11.8784l-15.5648 0.8192z m24.576 203.9808c-6.5536 0.4096-13.1072-2.048-17.6128-6.5536-5.3248-5.7344-7.3728-13.5168-6.5536-20.8896v-1.2288h15.1552v1.2288c0 3.6864 0 7.7824 1.2288 9.0112h1.2288c1.2288 1.2288 4.9152 1.2288 9.0112 1.2288H702.8736c3.2768 0 4.9152-0.8192 4.9152-1.2288l0.8192-0.8192c0.8192 0 1.2288-1.2288 1.2288-4.9152v-181.0432c0-2.4576 0-4.9152-0.8192-7.7824-10.24-29.9008-19.6608-60.2112-29.9008-88.8832-14.7456-45.056-29.9008-90.112-45.056-135.168-0.4096-2.4576-2.4576-4.5056-4.9152-4.5056h-396.0832c-2.4576 0-4.9152 0-7.7824 0.8192-1.6384 0.8192-2.8672 2.048-3.6864 3.6864l-15.1552-3.2768c2.048-6.9632 7.7824-11.8784 14.7456-13.9264 4.096-0.8192 8.192-1.2288 11.8784-0.8192h394.0352c9.4208 0 18.0224 6.144 20.8896 15.1552 15.1552 44.6464 29.9008 90.112 45.056 134.7584l29.9008 90.112c1.2288 4.096 1.2288 8.192 0.8192 11.8784v179.8144c0.4096 6.144-2.048 12.6976-6.5536 17.2032-4.9152 4.096-11.0592 6.5536-17.2032 6.5536H156.4672c-0.4096 0-0.8192 0-1.6384-0.4096z" p-id="8972"></path><path d="M427.2128 913.408c-17.6128 0.4096-34.4064-5.3248-48.3328-15.9744-20.0704-14.336-32.3584-37.2736-33.5872-62.2592 0-2.4576 0-6.5536-1.2288-7.7824l-0.8192-0.8192c-0.8192-0.8192-2.4576-0.8192-4.9152-0.8192h-169.5744c-4.096 0-7.7824-3.2768-7.7824-7.3728s3.2768-7.7824 7.3728-7.7824h168.3456c5.7344-0.4096 11.4688 1.2288 15.9744 4.9152a23.7568 23.7568 0 0 1 6.9632 18.432c1.2288 20.48 11.4688 38.912 27.8528 50.7904 12.6976 9.0112 27.8528 13.9264 43.4176 13.5168 18.432-0.8192 35.6352-9.0112 47.5136-22.9376 10.24-11.8784 15.9744-27.0336 17.2032-42.5984-0.4096-6.144 2.048-12.6976 6.5536-17.2032s10.6496-6.5536 17.2032-6.5536h168.3456c4.096 0 7.7824 3.2768 7.7824 7.7824s-3.2768 7.7824-7.7824 7.7824H519.3728c-3.6864 0-4.9152 0.8192-4.9152 1.2288l-0.8192 0.8192c-1.2288 0.8192-1.2288 4.5056-1.2288 6.5536-0.8192 19.2512-8.192 37.2736-20.8896 51.6096-14.7456 16.7936-36.0448 27.0336-58.5728 27.8528-2.048 0.4096-4.096 0.8192-5.7344 0.8192zM999.0144 396.0832v-13.9264c0.4096-3.6864-2.4576-6.5536-6.144-6.9632h-0.8192c-3.6864 0-6.9632 3.2768-6.9632 6.9632v13.9264h-13.9264c-3.6864-0.4096-6.5536 2.4576-6.9632 6.144v0.8192c0 3.6864 3.2768 6.9632 6.9632 6.9632h13.9264v13.9264c0 3.6864 2.8672 6.9632 6.5536 7.3728 3.6864 0 6.9632-2.8672 7.3728-6.5536v-14.336h13.9264c3.6864 0 6.9632-3.2768 6.5536-7.3728 0-3.6864-3.2768-6.5536-6.5536-6.5536l-13.9264-0.4096z m-874.496 94.6176v-13.9264c0.4096-3.6864-2.4576-6.5536-6.144-6.9632h-0.8192c-3.6864 0-6.9632 3.2768-6.9632 6.9632v13.9264h-13.9264c-3.6864-0.4096-6.5536 2.4576-6.9632 6.144v0.8192c0 3.6864 3.2768 6.9632 6.9632 6.9632h13.9264v13.9264c0 3.6864 2.8672 6.9632 6.5536 7.3728 3.6864 0 6.9632-2.8672 7.3728-6.5536v-14.336h13.9264c3.6864 0 6.9632-2.8672 7.3728-6.5536 0-3.6864-2.8672-6.9632-6.5536-7.3728h-0.4096l-14.336-0.4096zM246.9888 323.584h20.8896c5.7344 0 10.6496 4.5056 10.6496 10.6496 0 5.7344-4.9152 10.6496-10.6496 10.6496h-20.8896v20.8896c0 5.7344-4.5056 10.6496-10.6496 10.6496a11.190272 11.190272 0 0 1-11.0592-11.0592v-20.8896h-20.48a11.190272 11.190272 0 0 1-11.0592-11.0592c0-5.7344 4.9152-10.6496 10.6496-10.6496h20.8896v-20.8896c0-6.144 4.9152-10.6496 10.6496-10.6496 6.144 0 10.6496 4.9152 10.6496 10.6496l0.4096 21.7088zM724.5824 0c-25.3952 0-45.8752 20.48-45.8752 45.8752s20.48 45.8752 45.8752 45.8752c25.3952 0 45.8752-20.48 45.8752-45.8752C770.048 20.48 749.568 0.4096 724.5824 0z m19.6608 56.5248c-4.096 6.9632-11.4688 11.4688-19.6608 11.4688-12.6976 0-22.9376-9.8304-23.3472-22.528 0-12.6976 9.8304-22.9376 22.528-23.3472h0.8192c8.192 0 15.5648 4.5056 19.6608 11.4688 3.6864 7.3728 3.6864 15.9744 0 22.9376z m-703.6928 112.64c-13.1072 0-24.9856 7.3728-31.9488 18.432-6.5536 11.0592-6.5536 24.9856 0 36.0448 10.24 17.6128 32.3584 23.3472 49.9712 13.5168 17.6128-10.24 23.3472-32.3584 13.5168-49.9712-6.5536-11.0592-18.432-18.0224-31.5392-18.0224z m15.9744 45.4656c-3.2768 5.7344-9.4208 9.0112-15.9744 9.0112-10.24 0.4096-18.432-7.7824-18.8416-18.0224-0.4096-10.24 7.7824-18.432 18.0224-18.8416h0.8192c6.5536 0 12.6976 3.2768 15.9744 9.0112 3.2768 5.7344 3.2768 13.1072 0 18.8416z" p-id="8973"></path></svg>