<svg xmlns="http://www.w3.org/2000/svg" xmlns:xlink="http://www.w3.org/1999/xlink" width="252.01202392578125" height="17.30400848388672" viewBox="0 0 252.01202392578125 17.30400848388672" fill="none">
<g >
<path     fill="#383838"  d="M9.07199 6.342L4.26599 6.342L5.21999 4.47L11.88 4.47L15.048 17.25L11.628 17.25L9.07199 6.342ZM8.56799 7.368L3.41999 17.25L-1.19805e-05 17.25L5.14799 7.368L8.56799 7.368ZM33.584 9.582L33.494 10.266L24.602 10.266L24.692 9.582L21.614 9.582L26.024 4.776L25.628 4.29L33.314 4.29L36.662 9.582L33.584 9.582ZM32 17.25L31.766 16.8L22.244 17.25L22.496 15.576L25.61 12.84L21.506 12.84L21.74 11.13L36.104 11.13L35.87 12.84L29.354 12.84L26.474 15.378L30.902 15.144L30.254 13.866L33.332 13.866L35.078 17.25L32 17.25ZM25.97 8.556L32.594 8.556L30.974 6L28.31 6L25.97 8.556ZM49.708 12.678L49.78 16.944L47.224 16.944L47.206 16.098L42.256 16.944L43.984 4.632L51.508 4.632L50.5 11.814L45.532 11.814L45.172 14.442L47.152 14.118L47.134 12.678L49.708 12.678ZM56.242 6.342L54.694 6.342L53.164 17.25L50.608 17.25L52.372 4.632L59.032 4.632L57.664 14.352Q57.592 14.874 57.196 15.225Q56.8 15.576 56.278 15.576L53.902 15.576L55.126 14.298L56.242 6.342ZM48.196 10.104L48.34 9.078L45.928 9.078L45.784 10.104L48.196 10.104ZM46.306 6.342L46.162 7.368L48.574 7.368L48.718 6.342L46.306 6.342ZM72.258 9.546L73.194 8.034L70.494 8.034L70.746 6.324L72.276 6.324L72.15 4.884L71.646 4.308L74.58 4.308L74.724 6.324L76.218 6.324L76.938 4.308L79.35 4.308L78.63 6.324L79.944 6.324L79.692 8.034L76.416 8.034L75.516 9.546L79.854 9.546L79.62 11.256L77.46 11.256L79.134 14.694L76.2 14.694L74.526 11.256L74.49 11.256L72.564 14.514L69.234 14.514L71.214 11.256L69.684 11.256L69.918 9.546L72.258 9.546ZM64.464 16.944L65.4 15.162L66.21 9.294L65.526 9.294L65.778 7.584L69.54 7.584L68.532 14.676L71.034 15.234L79.404 15.234L79.17 16.944L69.594 16.944L67.812 16.422L67.542 16.944L64.464 16.944ZM69 4.632L69.576 6.9L66.768 6.9L66.192 4.632L69 4.632ZM105.092 10.968L103.46 10.968L104.924 0.479999L116.252 0.479999L114.788 10.968L111.356 10.968L112.532 2.52L108.164 2.52L107.948 4.104L105.092 10.968ZM102.38 13.992L100.988 12.576L100.34 17.28L96.644 17.28L97.412 11.664L95.684 11.664L99.908 5.4L96.86 5.4L97.196 3.144L103.484 3.144L103.052 6.096L101.492 8.376L102.956 9.864L102.38 13.992ZM112.076 3.672L106.388 17.304L103.004 17.304L108.716 3.672L112.076 3.672ZM108.212 17.304L109.628 11.592L113.036 11.592L112.268 14.688L114.212 14.688L115.34 13.704L114.812 17.304L108.212 17.304ZM102.692 2.736L99.596 2.736L99.212 0.647998L98.756 0.0719976L102.212 0.0719976L102.692 2.736ZM143.116 0.0239992L141.964 2.664L143.404 2.664L142.996 5.616L138.46 5.616L138.556 4.848L128.476 4.848L128.38 5.616L123.844 5.616L124.252 2.664L125.74 2.664L125.548 0.0239992L130.108 0.0239992L130.3 2.664L131.644 2.664L131.476 0.0239992L136.036 0.0239992L136.204 2.664L137.404 2.664L138.556 0.0239992L143.116 0.0239992ZM141.652 6.144L140.692 12.864L136.612 12.864L137.284 8.232L128.932 8.232L128.5 10.944L126.508 12.864L124.18 12.864L125.14 6.144L141.652 6.144ZM135.772 9.096L127.348 17.256L122.692 17.256L131.332 9.096L135.772 9.096ZM131.788 17.28L132.772 12.192L136.444 12.192L136.108 14.64L141.22 14.64L142.276 13.704L141.772 17.28L131.788 17.28ZM161.892 0.503999L158.844 17.28L155.244 17.28L158.196 1.392L157.404 0.503999L161.892 0.503999ZM170.484 0.503999L168.108 17.28L164.772 17.28L167.004 1.416L166.044 0.503999L170.484 0.503999ZM149.772 17.304L151.26 6.864L150.084 6.864L150.396 4.584L155.292 4.584L153.972 14.016L155.412 13.632L155.076 15.936L149.772 17.304ZM165.972 1.248L163.788 16.32L160.524 16.32L162.588 2.184L161.892 1.248L165.972 1.248ZM154.86 0.479999L155.556 3.672L152.316 3.672L151.62 0.479999L154.86 0.479999ZM189.308 15.12L189.932 10.752L185.156 10.752L185.444 8.664L186.044 7.32L185.204 7.32L185.516 5.016L187.1 5.016L187.724 3.672L185.228 3.672L185.54 1.416L188.756 1.416L189.092 0.719998L188.516 0.0719976L192.98 0.0719976L192.356 1.416L197.852 1.416L197.54 3.672L191.324 3.672L190.724 5.016L193.94 5.016L193.436 8.664L197.3 8.664L197.012 10.752L193.148 10.752L192.452 15.72Q192.332 16.416 191.804 16.836Q191.276 17.256 190.604 17.256L187.22 17.256L189.308 15.12ZM178.148 5.52L181.268 0.647998L180.74 0.0479975L185.756 0.0479975L182.252 5.52L184.988 5.52L181.484 10.992L184.22 10.992L183.908 13.272L177.068 13.272L177.38 10.992L179.444 7.8L177.836 7.8L178.148 5.52ZM189.14 11.4L187.004 16.824L184.028 16.824L186.164 11.4L189.14 11.4ZM183.452 16.464L176.564 16.92L176.876 14.64L183.788 14.184L183.452 16.464ZM195.956 11.4L196.124 16.848L193.292 16.848L193.22 11.4L195.956 11.4ZM189.668 7.32L189.068 8.664L190.22 8.664L190.412 7.32L189.668 7.32ZM206.428 11.4L207.1 6.864L204.532 6.864L208.9 3.432L206.092 3.432L206.38 1.344L211.564 1.344L212.428 0.671998L211.876 0.0479975L218.356 0.0479975L216.748 1.344L224.572 1.344L224.284 3.432L221.596 3.432L224.572 6.624L219.292 6.624L219.004 6.336L211.66 6.336L211.588 6.816L221.284 6.816L221.02 8.592L211.324 8.592L211.252 9.048L221.908 9.048L221.644 10.824L211.012 10.824L210.916 11.4L222.484 11.4L222.22 13.368L212.668 13.368L210.82 15.024L216.532 14.784L215.98 13.704L220.348 13.704L222.196 17.28L217.828 17.28L217.54 16.728L204.748 17.208L204.988 15.456L207.484 13.368L204.004 13.368L204.268 11.4L206.428 11.4ZM213.076 4.32L217.084 4.32L216.244 3.432L214.18 3.432L213.076 4.32ZM231.924 15.096L232.524 10.872L250.62 10.872L250.02 15.096L250.98 15.096L250.74 16.848L230.724 16.848L230.964 15.096L231.924 15.096ZM247.572 4.872L247.332 3.984L247.212 4.992L237.204 4.992L237.324 4.104L236.868 4.872L232.764 4.872L235.5 0.791999L234.948 -9.53674e-07L250.356 -9.53674e-07L252.012 4.872L247.572 4.872ZM250.836 5.76L250.188 10.224L233.244 10.224L233.892 5.76L250.836 5.76ZM237.852 3.216L247.14 3.216L246.948 2.4L238.332 2.4L237.852 3.216ZM245.604 8.496L245.724 7.608L237.924 7.608L237.804 8.496L245.604 8.496ZM245.388 12.744L245.076 15.096L246.18 15.096L246.516 12.744L245.388 12.744ZM240.54 15.096L241.644 15.096L241.956 12.744L240.852 12.744L240.54 15.096ZM236.004 15.096L237.108 15.096L237.42 12.744L236.34 12.744L236.004 15.096Z">
</path>
</g>
</svg>
