<svg xmlns="http://www.w3.org/2000/svg" xmlns:xlink="http://www.w3.org/1999/xlink" width="227.6585693359375" height="17.23199462890625" viewBox="0 0 227.6585693359375 17.23199462890625" fill="none">
<g >
<path     fill="#383838"  d="M12.078 9.53399L11.988 10.218L3.096 10.218L3.186 9.53399L0.108004 9.53399L4.518 4.728L4.122 4.242L11.808 4.242L15.156 9.53399L12.078 9.53399ZM10.494 17.202L10.26 16.752L0.738004 17.202L0.990004 15.528L4.104 12.792L4.11272e-06 12.792L0.234004 11.082L14.598 11.082L14.364 12.792L7.848 12.792L4.968 15.33L9.396 15.096L8.748 13.818L11.826 13.818L13.572 17.202L10.494 17.202ZM4.464 8.508L11.088 8.508L9.468 5.952L6.804 5.952L4.464 8.508ZM23.774 5.25L23.198 4.584L36.86 4.584L36.248 9.02999L23.252 9.02999L23.774 5.25ZM36.482 9.71399L35.78 14.682L33.818 14.682L32.504 13.656L32.828 11.424L25.988 11.424L25.664 13.656L24.062 14.682L22.1 14.682L22.802 9.71399L36.482 9.71399ZM31.19 12.108L30.992 13.494L35.78 17.202L30.938 17.202L28.814 15.582L26.258 17.202L21.416 17.202L27.248 13.494L27.446 12.108L31.19 12.108ZM33.062 7.32L33.206 6.294L27.05 6.294L26.906 7.32L33.062 7.32ZM56.548 6.978L55.756 8.166L57.754 8.166L56.692 15.672Q56.62 16.194 56.224 16.545Q55.828 16.896 55.306 16.896L52.606 16.896L54.19 15.294L54.712 11.586L51.796 11.586L50.986 10.056L54.064 10.056L54.748 11.352L54.982 9.71399L46.414 9.71399L46.18 11.334L47.224 10.056L50.302 10.056L49.06 11.586L46.144 11.586L45.406 16.896L42.85 16.896L44.074 8.166L46.108 8.166L45.604 6.978L49.024 6.978L49.528 8.166L52.336 8.166L53.128 6.978L56.548 6.978ZM46.27 15.528L46.774 11.928L53.956 11.928L53.452 15.528L46.27 15.528ZM49.618 5.106L49.672 4.782L49.06 4.242L53.164 4.242L53.038 5.106L58.528 5.106L58.312 6.636L43.948 6.636L44.164 5.106L49.618 5.106ZM51.436 14.16L51.562 13.296L48.826 13.296L48.7 14.16L51.436 14.16ZM67.992 5.268L67.398 4.584L79.026 4.584L78.252 10.056L67.308 10.056L67.992 5.268ZM75.084 8.34599L75.372 6.294L71.268 6.294L70.98 8.34599L75.084 8.34599ZM79.872 10.74L79.008 16.896L72.168 16.896L73.032 10.74L79.872 10.74ZM75.534 12.45L75.138 15.186L76.506 15.186L76.902 12.45L75.534 12.45ZM72.348 10.74L71.484 16.896L64.644 16.896L65.508 10.74L72.348 10.74ZM68.01 12.45L67.614 15.186L68.982 15.186L69.378 12.45L68.01 12.45ZM106.265 10.584L97.1692 10.584L98.3692 1.944L112.049 1.944L110.345 13.968Q110.249 14.664 109.709 15.132Q109.169 15.6 108.497 15.6L96.4492 15.6L96.8092 13.32L105.881 13.32L106.265 10.584ZM102.617 4.2L102.017 8.304L106.601 8.304L107.177 4.2L102.617 4.2ZM119.473 12.84L123.121 12.84L122.737 15.576L119.089 15.576L119.473 12.84ZM140.673 4.2L136.089 4.2L135.873 6.024L131.313 6.024L131.889 1.92L145.545 1.92L144.393 10.128L134.817 10.128L134.385 13.32L143.049 13.32L144.081 12.408L143.625 15.6L131.601 15.6Q130.905 15.6 130.497 15.132Q130.089 14.664 130.185 13.968L131.049 7.848L140.145 7.848L140.673 4.2ZM162.545 0.695997L173.393 0.143997L173.033 2.664L166.169 3.024L165.665 5.856L172.961 5.856L172.625 8.25599L171.137 8.25599L169.889 17.208L165.713 17.208L166.961 8.25599L165.257 8.25599L163.697 17.208L159.761 17.208L162.545 0.695997ZM153.881 15L154.337 11.736L152.009 12.288L152.345 9.768L154.673 9.216L155.225 5.208L152.993 5.208L153.305 2.928L155.561 2.928L155.873 0.695997L155.369 -3.8147e-06L160.073 -3.8147e-06L159.665 2.928L161.489 2.928L161.177 5.208L159.329 5.208L158.921 8.18399L160.817 7.72799L160.481 10.248L158.561 10.704L157.865 15.648Q157.769 16.344 157.277 16.788Q156.785 17.232 156.161 17.232L151.913 17.232L153.881 15ZM201.473 4.296L200.555 7.23L205.379 7.23L205.145 8.994L200.015 8.994L197.513 17.148L194.147 17.148L196.919 8.994L195.623 8.994L195.857 7.23L197.513 7.23L198.287 4.962L197.747 4.296L201.473 4.296ZM195.263 6.456L193.769 17.184L190.475 17.184L191.879 7.05L190.781 7.23L191.087 5.052L195.569 4.278L195.263 6.456ZM204.335 17.148L199.205 17.148L200.285 9.516L203.399 9.516L202.553 15.474L203.885 15.474L204.659 14.79L204.335 17.148ZM202.607 6.636L202.355 4.62L204.929 4.62L205.163 6.636L202.607 6.636ZM218.533 6.744L218.587 6.33L213.115 6.33L213.295 5.106L218.749 5.106L218.785 4.926L218.371 4.26L222.223 4.26L222.097 5.106L227.659 5.106L227.479 6.33L221.935 6.33L221.881 6.744L227.011 6.744L226.381 11.19L221.251 11.19L221.161 11.82L223.627 11.784L223.537 11.406L226.021 11.406L226.525 13.458L224.041 13.458L223.933 13.044L212.251 13.224L212.431 11.964L217.831 11.874L217.921 11.19L212.791 11.19L213.421 6.744L218.533 6.744ZM215.059 16.896L215.527 13.584L218.605 13.584L218.317 15.618L222.223 15.618L222.979 15.114L222.727 16.896L215.059 16.896ZM223.303 13.8L226.093 13.8L226.291 16.878L223.501 16.878L223.303 13.8ZM214.033 16.878L211.297 16.878L212.413 13.8L215.149 13.8L214.033 16.878ZM219.343 13.404L222.115 13.404L222.133 15.276L219.343 15.276L219.343 13.404ZM221.737 7.77L221.665 8.238L223.627 8.238L223.699 7.77L221.737 7.77ZM223.357 10.146L223.411 9.696L221.467 9.696L221.395 10.146L223.357 10.146ZM216.499 8.238L218.317 8.238L218.389 7.77L216.571 7.77L216.499 8.238ZM218.065 10.146L218.119 9.696L216.283 9.696L216.229 10.146L218.065 10.146Z">
</path>
</g>
</svg>
