<?xml version="1.0" standalone="no"?><!DOCTYPE svg PUBLIC "-//W3C//DTD SVG 1.1//EN" "http://www.w3.org/Graphics/SVG/1.1/DTD/svg11.dtd"><svg t="1745638309342" class="icon" viewBox="0 0 1024 1024" version="1.1" xmlns="http://www.w3.org/2000/svg" p-id="1753" data-spm-anchor-id="a313x.collections_detail.0.i5.12cf3a81W7zyuZ" xmlns:xlink="http://www.w3.org/1999/xlink" width="64" height="64"><path d="M290.911114 475.358475l-88.423889 0c-6.346545 0-11.490705-5.14416-11.490705-11.491729 0-6.346545 5.14416-11.490705 11.490705-11.490705l76.93216 0L279.419386 338.379731c0-6.347568 5.14416-11.491729 11.490705-11.491729 6.347568 0 11.491729 5.14416 11.491729 11.491729l0 125.487016C302.402843 470.214315 297.257659 475.358475 290.911114 475.358475z" fill="#1296db" p-id="1754" data-spm-anchor-id="a313x.collections_detail.0.i6.12cf3a81W7zyuZ" class=""></path><path d="M768.173962 876.376825c-58.870806 0-106.767676-48.476061-106.767676-108.062158 0-59.585073 47.89687-108.063181 106.767676-108.063181 58.872852 0 106.769722 48.478108 106.769722 108.063181C874.943684 827.900763 827.046814 876.376825 768.173962 876.376825zM768.173962 683.235966c-46.199205 0-83.785242 38.166251-83.785242 85.079724 0 46.914496 37.585013 85.079724 83.785242 85.079724s83.786265-38.165228 83.786265-85.079724C851.960227 721.402217 814.373167 683.235966 768.173962 683.235966z" fill="#231815" p-id="1755"></path><path d="M273.605983 876.376825c-58.757219 0-106.558921-48.476061-106.558921-108.062158 0-59.585073 47.801702-108.063181 106.558921-108.063181 58.755172 0 106.558921 48.478108 106.558921 108.063181C380.164904 827.900763 332.362178 876.376825 273.605983 876.376825zM273.605983 683.235966c-46.084595 0-83.576487 38.166251-83.576487 85.079724 0 46.914496 37.491892 85.079724 83.576487 85.079724s83.576487-38.165228 83.576487-85.079724C357.18247 721.402217 319.690578 683.235966 273.605983 683.235966z" fill="#231815" p-id="1756"></path><path d="M864.513124 762.181993c-6.345522 0-11.490705-5.14416-11.490705-11.490705 0-6.345522 5.145184-11.490705 11.490705-11.490705 23.793916 0 41.062208-8.619308 52.791343-26.352181 10.807137-16.338107 16.518209-40.444131 16.518209-69.717851L933.822676 266.671549c0-52.971445-42.450834-96.066963-94.633311-96.066963L556.205293 170.604586c-52.17429 0-94.621031 43.095517-94.621031 96.066963l0 472.52801 212.527394 0c6.345522 0 11.490705 5.145184 11.490705 11.490705 0 6.346545-5.145184 11.490705-11.490705 11.490705L450.092533 762.180969c-6.345522 0-11.490705-5.14416-11.490705-11.490705L438.601828 266.671549c0-65.644069 52.756551-119.049397 117.604488-119.049397l282.984073 0c64.853054 0 117.615745 53.405327 117.615745 119.049397L956.806133 643.130549C956.80511 718.788693 923.166989 762.181993 864.513124 762.181993z" fill="#231815" p-id="1757"></path><path d="M450.092533 762.181993l-78.890768 0c-6.347568 0-11.491729-5.14416-11.491729-11.490705 0-6.345522 5.14416-11.490705 11.491729-11.490705l67.400063 0L438.601828 278.163277 228.746286 278.163277 90.1763 428.903443l0 310.296115 80.727603 0c6.346545 0 11.490705 5.145184 11.490705 11.490705 0 6.346545-5.14416 11.490705-11.490705 11.490705L78.685595 762.180969c-6.347568 0-11.491729-5.14416-11.491729-11.490705L67.193867 424.424432c0-2.880607 1.082658-5.655813 3.032056-7.777127l145.016815-157.752884c2.175549-2.366907 5.244444-3.713578 8.459672-3.713578l226.391147 0c6.347568 0 11.491729 5.14416 11.491729 11.490705l0 484.019739C461.584262 757.037832 456.439078 762.181993 450.092533 762.181993z" fill="#231815" p-id="1758"></path></svg>