<?xml version="1.0" standalone="no"?><!DOCTYPE svg PUBLIC "-//W3C//DTD SVG 1.1//EN" "http://www.w3.org/Graphics/SVG/1.1/DTD/svg11.dtd"><svg t="1741870508532" class="icon" viewBox="0 0 1024 1024" version="1.1" xmlns="http://www.w3.org/2000/svg" p-id="18408" xmlns:xlink="http://www.w3.org/1999/xlink" width="128" height="128"><path d="M62.464 855.04a452.608 129.024 0 1 0 905.216 0 452.608 129.024 0 1 0-905.216 0Z" fill="#EEF2FF" p-id="18409"></path><path d="M912.384 355.328H117.76V199.68c0-56.32 46.08-102.4 102.4-102.4h692.224v258.048z" fill="#70D4FF" p-id="18410"></path><path d="M741.376 855.04h-17.408c-15.36 0-29.696-6.144-39.936-16.384L557.056 712.704c-23.552-23.552-61.44-21.504-82.944 2.048L366.592 835.584c-11.264 12.288-26.624 19.456-43.008 19.456H81.92c-31.744 0-57.344-25.6-57.344-57.344v-440.32c0-31.744 25.6-57.344 57.344-57.344h865.28c31.744 0 57.344 25.6 57.344 57.344v234.496c0 145.408-117.76 263.168-263.168 263.168z" fill="#4E8EFF" p-id="18411"></path><path d="M870.4 614.4c-20.48 0-36.864-16.384-36.864-36.864V466.944H611.328c-20.48 0-36.864-16.384-36.864-36.864s16.384-36.864 36.864-36.864h295.936v185.344c0 19.456-16.384 35.84-36.864 35.84z" fill="#FFFFFF" p-id="18412"></path></svg>