<svg xmlns="http://www.w3.org/2000/svg" xmlns:xlink="http://www.w3.org/1999/xlink" width="17.33356475830078" height="15.333343505859375" viewBox="0 0 17.33356475830078 15.333343505859375" fill="none">
<path d="M1.33333 3.33334L14.4007 11.5767C14.6087 11.708 14.71 11.9767 14.6487 12.2327C14.588 12.488 14.3787 12.666 14.1393 12.6667L3.32333 12.6667C2.79001 12.6667 2.34001 12.2287 2.27399 11.6447L1.33333 3.33334Z"   fill="#DCA54F" >
</path>
<path d="M14.96 11.6447C14.8947 12.2287 14.4447 12.6667 13.9113 12.6667L3.46733 12.6667C3.22733 12.6667 2.64733 12.4887 2.58601 12.2333C2.52399 11.978 2.62601 11.7087 2.83399 11.5773L15.9 3.33334L14.96 11.644L14.96 11.6447Z"   fill="#DCA54F" >
</path>
<path d="M8.66666 1.33334L14.4953 10.9153C14.5018 10.9261 14.5081 10.9371 14.5143 10.948C14.5205 10.959 14.5264 10.9702 14.5322 10.9813C14.538 10.9925 14.5436 11.0038 14.5491 11.0152C14.5545 11.0266 14.5598 11.038 14.5649 11.0496C14.5699 11.0611 14.5748 11.0727 14.5796 11.0844C14.5843 11.0961 14.5888 11.1079 14.5931 11.1197C14.5975 11.1315 14.6017 11.1434 14.6056 11.1554C14.6096 11.1673 14.6134 11.1794 14.617 11.1914C14.6206 11.2035 14.6239 11.2157 14.6272 11.2279C14.6304 11.2401 14.6334 11.2523 14.6362 11.2646C14.639 11.2769 14.6417 11.2892 14.6441 11.3016C14.6465 11.3139 14.6488 11.3263 14.6508 11.3388C14.6529 11.3512 14.6547 11.3637 14.6564 11.3762C14.658 11.3887 14.6595 11.4012 14.6607 11.4137C14.662 11.4263 14.663 11.4388 14.6639 11.4514C14.6648 11.464 14.6654 11.4766 14.6659 11.4892C14.6664 11.5018 14.6666 11.5144 14.6667 11.527C14.6667 11.5396 14.6666 11.5522 14.6663 11.5648C14.666 11.5774 14.6654 11.59 14.6647 11.6026C14.664 11.6152 14.6631 11.6277 14.6619 11.6403C14.6608 11.6528 14.6595 11.6654 14.658 11.6779C14.6564 11.6904 14.6547 11.7029 14.6528 11.7154C14.6509 11.7278 14.6488 11.7402 14.6465 11.7526C14.6442 11.765 14.6417 11.7774 14.639 11.7897C14.6363 11.802 14.6334 11.8143 14.6303 11.8265C14.6273 11.8387 14.624 11.8509 14.6205 11.863C14.6171 11.8751 14.6134 11.8872 14.6096 11.8992C14.6057 11.9112 14.6017 11.9231 14.5975 11.935C14.5932 11.9469 14.5888 11.9587 14.5842 11.9705C14.5797 11.9822 14.5749 11.9939 14.5699 12.0055C14.565 12.017 14.5598 12.0286 14.5545 12.04C14.5492 12.0514 14.5437 12.0627 14.538 12.074C14.3527 12.4393 13.9947 12.6667 13.606 12.6667L8.66666 12.6667L8.66666 1.33334Z"   fill="#E7B15C" >
</path>
<path d="M8.66666 1.33334L2.496 11.008C2.4895 11.0188 2.48318 11.0297 2.47704 11.0407C2.47089 11.0517 2.46492 11.0628 2.45913 11.074C2.45332 11.0852 2.44769 11.0965 2.44225 11.1079C2.43681 11.1192 2.43155 11.1307 2.42647 11.1422C2.42139 11.1538 2.41649 11.1654 2.41176 11.1771C2.40705 11.1888 2.40252 11.2005 2.39817 11.2123C2.39383 11.2242 2.38968 11.2361 2.38571 11.248C2.38174 11.26 2.37795 11.272 2.37436 11.2841C2.37077 11.2962 2.36737 11.3083 2.36416 11.3205C2.36095 11.3327 2.35793 11.345 2.3551 11.3572C2.35229 11.3695 2.34967 11.3819 2.34723 11.3942C2.3448 11.4066 2.34256 11.419 2.34051 11.4314C2.33847 11.4439 2.33662 11.4564 2.33497 11.4688C2.33331 11.4813 2.33186 11.4938 2.33061 11.5064C2.32935 11.5189 2.32829 11.5315 2.32743 11.5441C2.32657 11.5567 2.3259 11.5692 2.32543 11.5818C2.32498 11.5944 2.32472 11.6071 2.32465 11.6197C2.32457 11.6322 2.3247 11.6449 2.32504 11.6575C2.32537 11.6701 2.3259 11.6826 2.32663 11.6952C2.32735 11.7078 2.32828 11.7204 2.3294 11.733C2.33052 11.7455 2.33184 11.758 2.33336 11.7705C2.33489 11.7831 2.33661 11.7955 2.33852 11.808C2.34042 11.8205 2.34252 11.8329 2.34483 11.8453C2.34713 11.8577 2.34963 11.87 2.35233 11.8824C2.35502 11.8947 2.35791 11.9069 2.36098 11.9192C2.36407 11.9314 2.36734 11.9436 2.37081 11.9557C2.37427 11.9678 2.37792 11.9799 2.38176 11.9919C2.3856 12.0039 2.38963 12.0158 2.39385 12.0277C2.39807 12.0396 2.40248 12.0514 2.40707 12.0631C2.41167 12.0749 2.41645 12.0865 2.42141 12.0981C2.42637 12.1097 2.43151 12.1212 2.43682 12.1326C2.44215 12.1441 2.44765 12.1554 2.45332 12.1667C2.63866 12.532 2.98733 12.6667 3.376 12.6667L8.66666 12.6667L8.66666 1.33334Z"   fill="#F2D59C" >
</path>
<path d="M7.64666 0.994668C7.64666 1.35 7.84133 1.67801 8.15666 1.856C8.16635 1.86144 8.17611 1.86672 8.18596 1.87184C8.19582 1.87695 8.20576 1.88191 8.21576 1.88672C8.22576 1.89152 8.23586 1.89617 8.24601 1.90066C8.25617 1.90514 8.26641 1.90946 8.2767 1.91361C8.28699 1.91777 8.29734 1.92176 8.30777 1.92559C8.3182 1.92941 8.32869 1.93307 8.33922 1.93656C8.34976 1.94005 8.36037 1.94337 8.37099 1.94652C8.38166 1.94967 8.39234 1.95265 8.40308 1.95545C8.41383 1.95826 8.42463 1.9609 8.43545 1.96336C8.44627 1.96582 8.45713 1.96811 8.46803 1.97023C8.47894 1.97236 8.48988 1.9743 8.50082 1.97605C8.5118 1.97783 8.52277 1.97941 8.53379 1.98084C8.5448 1.98225 8.55584 1.98348 8.56689 1.98455C8.57795 1.98562 8.58902 1.9865 8.6001 1.98721C8.61119 1.98793 8.62226 1.98846 8.63336 1.98881C8.64445 1.98916 8.65557 1.98934 8.66666 1.98934C8.67777 1.98934 8.68887 1.98916 8.69996 1.98881C8.71105 1.98846 8.72215 1.98793 8.73324 1.98721C8.74433 1.9865 8.75539 1.98562 8.76642 1.98455C8.77748 1.98348 8.78851 1.98225 8.79953 1.98084C8.81055 1.97941 8.82154 1.97783 8.8325 1.97605C8.84348 1.9743 8.85439 1.97236 8.86529 1.97023C8.87619 1.96811 8.88705 1.96582 8.89787 1.96336C8.90871 1.9609 8.91949 1.95826 8.93023 1.95545C8.94098 1.95265 8.95168 1.94967 8.96232 1.94652C8.97297 1.94337 8.98355 1.94005 8.9941 1.93656C9.00465 1.93307 9.01514 1.92941 9.02555 1.92559C9.03598 1.92176 9.04635 1.91777 9.05662 1.91361C9.06693 1.90946 9.07715 1.90514 9.0873 1.90066C9.09748 1.89617 9.10756 1.89152 9.11756 1.88672C9.12758 1.88191 9.13752 1.87695 9.14736 1.87184C9.15721 1.86672 9.16697 1.86144 9.17666 1.856C9.49199 1.67801 9.68666 1.34934 9.68666 0.994668C9.68666 0.445332 9.23 0 8.66666 0C8.10332 0 7.64666 0.445332 7.64666 0.994668ZM15.294 2.984C15.286 3.344 15.4787 3.68066 15.7973 3.86334C16.116 4.04533 16.5107 4.04533 16.83 3.86334C17.1486 3.68066 17.3413 3.344 17.3333 2.98334C17.3213 2.44334 16.868 2.01066 16.3133 2.01066C15.7593 2.01066 15.3067 2.44334 15.294 2.984L15.294 2.984ZM0.000667869 2.984C-0.00799998 3.344 0.184668 3.68066 0.503334 3.86334C0.822 4.04533 1.21667 4.04533 1.536 3.86334C1.85468 3.68066 2.04732 3.344 2.03934 2.98334C2.02732 2.44334 1.57399 2.01066 1.01934 2.01066C0.465334 2.01066 0.0126679 2.44334 0 2.984L0.000667869 2.984Z"   fill="#E7B15C" >
</path>
<path d="M3.33332 14L14 14C14.4444 14 14.6667 14.2222 14.6667 14.6667C14.6667 15.1111 14.4444 15.3333 14 15.3333L3.33332 15.3333C2.88888 15.3333 2.66666 15.1111 2.66666 14.6667C2.66666 14.2222 2.88888 14 3.33332 14Z"   fill="#DCA54F" >
</path>
</svg>
