<?xml version="1.0" standalone="no"?><!DOCTYPE svg PUBLIC "-//W3C//DTD SVG 1.1//EN" "http://www.w3.org/Graphics/SVG/1.1/DTD/svg11.dtd"><svg t="1752031396532" class="icon" viewBox="0 0 1024 1024" version="1.1" xmlns="http://www.w3.org/2000/svg" p-id="20026" xmlns:xlink="http://www.w3.org/1999/xlink" width="200" height="200"><path d="M706.319059 933.104941l0.301176 0.542118H231.664941C153.6 933.647059 90.352941 870.038588 90.352941 791.672471V232.327529C90.352941 153.961412 153.6 90.352941 231.664941 90.352941h500.434824C810.164706 90.352941 873.411765 153.961412 873.411765 232.327529v272.26353a240.941176 240.941176 0 0 1-167.092706 428.483765zM813.176471 469.293176V232.327529C813.176471 187.151059 776.824471 150.588235 732.099765 150.588235H231.664941A81.408 81.408 0 0 0 150.588235 232.327529v559.344942C150.588235 836.848941 186.940235 873.411765 231.664941 873.411765h331.776A240.941176 240.941176 0 0 1 813.176471 469.293176zM301.176471 301.176471h361.411764a30.117647 30.117647 0 1 1 0 60.235294H301.176471a30.117647 30.117647 0 1 1 0-60.235294z m0 180.705882h150.588235a30.117647 30.117647 0 1 1 0 60.235294h-150.588235a30.117647 30.117647 0 1 1 0-60.235294z m0 180.705882h90.352941a30.117647 30.117647 0 1 1 0 60.235294h-90.352941a30.117647 30.117647 0 1 1 0-60.235294z m421.647058 210.82353a180.705882 180.705882 0 1 0 0-361.411765 180.705882 180.705882 0 0 0 0 361.411765z m-61.680941-97.069177l-41.110588-41.140706a30.117647 30.117647 0 1 1 42.586353-42.586353l21.353412 21.323295 106.405647-106.405648a30.117647 30.117647 0 0 1 42.61647 42.586353l-127.789176 127.759059a30.117647 30.117647 0 0 1-44.062118-1.536z" fill="#A7A9B2" p-id="20027"></path></svg>