<?xml version="1.0" standalone="no"?><!DOCTYPE svg PUBLIC "-//W3C//DTD SVG 1.1//EN" "http://www.w3.org/Graphics/SVG/1.1/DTD/svg11.dtd"><svg t="1753199705058" class="icon" viewBox="0 0 1024 1024" version="1.1" xmlns="http://www.w3.org/2000/svg" p-id="5670" width="128" height="128" xmlns:xlink="http://www.w3.org/1999/xlink"><path d="M776.4992 327.68H369.152c-10.24 0-18.5088 9.1648-18.5088 20.5056 0 11.2896 8.2688 20.48 18.5088 20.48h407.3472c10.1888 0 18.5088-9.1648 18.5088-20.48 0-11.3408-8.32-20.5056-18.5088-20.5056z m0 0M229.0176 348.1856c0 11.2896 7.2704 20.48 16.2304 20.48h48.64c8.96 0 16.2048-9.1648 16.2048-20.48 0-11.3152-7.2448-20.5056-16.2048-20.5056h-48.64c-8.96 0-16.2304 9.1648-16.2304 20.5056z m0 0M776.4992 552.9856H369.152c-10.24 0-18.5088 9.1648-18.5088 20.5056 0 11.2384 8.2688 20.4544 18.5088 20.4544h407.3472c10.1888 0 18.5088-9.1904 18.5088-20.4544 0-11.3408-8.32-20.5056-18.5088-20.5056z m0 0M293.888 552.9856h-48.64c-8.96 0-16.2304 9.1648-16.2304 20.5056 0 11.2384 7.2704 20.4544 16.2304 20.4544h48.64c8.96 0 16.2048-9.1904 16.2048-20.4544 0-11.3408-7.2448-20.5056-16.2048-20.5056z m0 0M776.4992 778.24H369.152c-10.24 0-18.5088 9.1648-18.5088 20.48s8.2688 20.48 18.5088 20.48h407.3472c10.1888 0 18.5088-9.1648 18.5088-20.48s-8.32-20.48-18.5088-20.48z m0 0M293.888 778.24h-48.64c-8.96 0-16.2304 9.1648-16.2304 20.48s7.2704 20.48 16.2304 20.48h48.64c8.96 0 16.2048-9.1648 16.2048-20.48s-7.2448-20.48-16.2048-20.48z m0 0M370.1248 184.32h283.7248c22.3488 0 40.5504-18.3808 40.5504-40.96v-102.4c0-22.5792-18.2016-40.96-40.5504-40.96H370.1248c-22.3488 0-40.5248 18.3808-40.5248 40.96v102.4256c0 22.5536 18.176 40.9344 40.5248 40.9344z m0-143.36h283.7248l0.0512 102.4256H370.1248V40.96z m0 0" p-id="5671"></path><path d="M897.0496 0h-162.0992v40.96h162.0992c33.5616 0 60.8 27.5712 60.8 61.44v819.2256c0 33.8688-27.2384 61.4144-60.8 61.4144H126.9248c-33.536 0-60.8-27.5456-60.8-61.4144V102.4c0-33.8688 27.264-61.44 60.8-61.44h162.1504V0H126.9248C71.04 0 25.6 45.952 25.6 102.4v819.2256C25.6 978.0736 71.04 1024 126.9248 1024h770.1248C952.96 1024 998.4 978.0736 998.4 921.6256V102.4c0-56.448-45.44-102.4-101.3504-102.4z m0 0" p-id="5672"></path></svg>