<?xml version="1.0" standalone="no"?><!DOCTYPE svg PUBLIC "-//W3C//DTD SVG 1.1//EN" "http://www.w3.org/Graphics/SVG/1.1/DTD/svg11.dtd"><svg t="1745638325954" class="icon" viewBox="0 0 1024 1024" version="1.1" xmlns="http://www.w3.org/2000/svg" p-id="1967" xmlns:xlink="http://www.w3.org/1999/xlink" width="64" height="64"><path d="M391.442762 615.517655c-4.688789 0-8.489348-3.800559-8.489348-8.489348L382.953414 371.489826c0-4.688789 3.800559-8.489348 8.489348-8.489348s8.489348 3.800559 8.489348 8.489348L399.93211 607.028307C399.93211 611.717096 396.131551 615.517655 391.442762 615.517655z" fill="#1296db" p-id="1968" data-spm-anchor-id="a313x.collections_detail.0.i13.12cf3a81W7zyuZ" class="selected"></path><path d="M523.01538 495.680313 263.393387 495.680313c-4.688789 0-8.489348-3.800559-8.489348-8.489348 0-4.687766 3.800559-8.489348 8.489348-8.489348L523.01538 478.701616c4.687766 0 8.489348 3.801583 8.489348 8.489348C531.503704 491.879754 527.703145 495.680313 523.01538 495.680313z" fill="#1296db" p-id="1969" data-spm-anchor-id="a313x.collections_detail.0.i12.12cf3a81W7zyuZ" class="selected"></path><path d="M489.724159 373.547695 293.384445 373.547695c-4.687766 0-8.489348-3.800559-8.489348-8.489348s3.801583-8.489348 8.489348-8.489348l196.339714 0c4.688789 0 8.490372 3.800559 8.490372 8.489348S494.412948 373.547695 489.724159 373.547695z" fill="#1296db" p-id="1970" data-spm-anchor-id="a313x.collections_detail.0.i9.12cf3a81W7zyuZ" class="selected"></path><path d="M395.498124 373.547695c-1.868557 0-3.751441-0.615007-5.320169-1.87879-3.650133-2.942005-4.226255-8.28571-1.285273-11.936867l88.473007-109.818151c2.943029-3.65218 8.286734-4.225231 11.936867-1.284249s4.226255 8.28571 1.285273 11.935843l-88.473007 109.818151C400.437623 372.46606 397.978618 373.547695 395.498124 373.547695z" fill="#1296db" p-id="1971" data-spm-anchor-id="a313x.collections_detail.0.i10.12cf3a81W7zyuZ" class="selected"></path><path d="M389.131113 373.006366c-2.445702 0-4.871961-1.051959-6.550183-3.085268l-90.216721-109.276822c-2.984984-3.615341-2.473331-8.967232 1.14201-11.952216 3.615341-2.983961 8.966209-2.473331 11.951193 1.14201L395.672086 359.111914c2.984984 3.615341 2.474354 8.966209-1.140986 11.951193C392.949069 372.368846 391.034463 373.006366 389.131113 373.006366z" fill="#1296db" p-id="1972" data-spm-anchor-id="a313x.collections_detail.0.i11.12cf3a81W7zyuZ" class="selected"></path><path d="M805.966707 761.171989 694.830537 761.171989c-5.650697 0-10.233062-4.582365-10.233062-10.233062L684.597475 639.800711c0-5.650697 4.582365-10.233062 10.233062-10.233062s10.233062 4.582365 10.233062 10.233062l0 100.905154 100.903108 0c5.650697 0 10.233062 4.582365 10.233062 10.233062S811.618427 761.171989 805.966707 761.171989z" fill="#231815" p-id="1973"></path><path d="M722.646046 896.836809c-95.751784 0-173.651992-77.911464-173.651992-173.677575 0-95.765087 77.900208-173.676551 173.651992-173.676551 95.749738 0 173.648922 77.911464 173.648922 173.676551C896.295991 818.926368 818.396807 896.836809 722.646046 896.836809zM722.646046 569.94983c-84.466764 0-153.185868 68.729338-153.185868 153.210427s68.719104 153.211451 153.185868 153.211451c84.46574 0 153.182798-68.730361 153.182798-153.211451S807.111786 569.94983 722.646046 569.94983z" fill="#231815" p-id="1974"></path><path d="M502.236124 894.798383 220.942553 894.798383c-51.411927 0-93.239568-41.832757-93.239568-93.252871L127.702985 220.416062c0-51.420113 41.827641-93.252871 93.239568-93.252871l581.051679 0c51.40374 0 93.224218 41.832757 93.224218 93.252871l0 267.505543c0 5.65172-4.582365 10.233062-10.233062 10.233062s-10.233062-4.581342-10.233062-10.233062L874.752326 220.416062c0-40.135092-32.639375-72.786747-72.758094-72.786747L220.942553 147.629315c-40.127929 0-72.773444 32.651654-72.773444 72.786747l0 581.130474c0 40.135092 32.645514 72.786747 72.773444 72.786747l281.293571 0c5.650697 0 10.233062 4.582365 10.233062 10.233062S507.886821 894.798383 502.236124 894.798383z" fill="#231815" p-id="1975"></path></svg>