<?xml version="1.0" standalone="no"?><!DOCTYPE svg PUBLIC "-//W3C//DTD SVG 1.1//EN" "http://www.w3.org/Graphics/SVG/1.1/DTD/svg11.dtd"><svg t="1758114599632" class="icon" viewBox="0 0 1024 1024" version="1.1" xmlns="http://www.w3.org/2000/svg" p-id="6898" width="256" height="256" xmlns:xlink="http://www.w3.org/1999/xlink"><path d="M499.5655296 68.48240106c248.2507648 0 449.34672747 201.27944427 449.34672747 449.53020907s-201.27944427 449.53020907-449.53020907 449.53020907c-240.36105067 0-436.50300693-188.6192064-448.7962816-426.04454934-0.5504448-1.83481707-0.7339264-3.48615253-0.73392746-5.3209696 0-1.10089067 0.1834816-2.20178027 0.36696426-3.30267093 0-4.03659733-0.1834816-7.88971413-0.1834816-11.92631147 0.7339264 0.3669632 1.46785387 0.91740907 2.20178027 1.2843712 1.65133547-2.20178027 4.4035616-3.66963413 7.52274987-4.40356053 3.48615253-2.38526187 7.70623253-3.66963413 12.10979413-3.6696352 8.25667733 0 15.5959456 4.5870432 19.26557973 11.37586667 1.10089067 1.10089067 2.01829867 2.20178027 2.75222614 3.30267093 3.85311573 6.42186027 5.5044512 13.76112853 4.9540064 20.1829888C114.62088534 756.53884266 288.01110934 920.02105386 499.5655296 920.02105386c222.01287893 0 402.00844373-179.9955648 402.0084448-402.00844373s-179.9955648-402.00844373-402.0084448-402.00844373c-26.97181227 0-53.57666133 2.75222613-79.08061973 7.88971306-0.5504448 1.28437227-2.01829867 2.20178027-4.9540064 3.11918934-18.34817173 5.137488-37.06330667-0.1834816-43.8521312-14.6785376-6.97230507-14.6785376 2.01829867-28.43966613 13.57764693-29.17359254 36.51286187-9.5410496 74.8605408-14.6785376 114.3091104-14.6785376z" p-id="6899" fill="#ffffff"></path><path d="M574.4260704 337.28311786v435.40211627h-96.32790186V446.27125866h-64.7690464v-60.54896746c0.3669632 0.3669632 0.91740907 0.7339264 1.46785386 0.91740906 0.5504448 0.1834816 1.28437227 0.3669632 2.20178134 0.3669632s1.46785387 0.1834816 2.01829866 0.3669632c0.5504448 0.1834816 1.10089067 0.3669632 1.46785387 0.3669632 3.30267093 0 6.60534187-0.3669632 10.274976-0.917408 3.66963413-0.5504448 7.15578667-1.28437227 10.274976-2.20178133 12.10979307-3.66963413 23.48565973-9.5410496 33.9441184-17.79772587 10.4584576-8.25667733 17.24728107-17.79772693 19.9995072-28.8066304v-0.5504448h79.44758293zM378.6510784 278.93593173L64.34689494 488.65553493l174.6745952-188.6192064-90.8234496-13.94461013 209.5361216-167.70229014-83.8511456 146.60189227z" p-id="6900" fill="#ffffff"></path></svg>