<?xml version="1.0" standalone="no"?><!DOCTYPE svg PUBLIC "-//W3C//DTD SVG 1.1//EN" "http://www.w3.org/Graphics/SVG/1.1/DTD/svg11.dtd"><svg t="1758114627247" class="icon" viewBox="0 0 1024 1024" version="1.1" xmlns="http://www.w3.org/2000/svg" p-id="7153" xmlns:xlink="http://www.w3.org/1999/xlink" width="256" height="256"><path d="M42.445855 246.175959l68.893272 31.496925c3.899619 1.999805 7.899229 7.899229 3.899619 13.798652L42.445855 441.056928c-3.899619 9.799043 7.899229 19.698076 15.798457 11.798848L263.024314 250.075579c3.899619-3.899619 3.899619-9.799043-1.999805-13.798653 0 0-1.999805-1.999805-3.899619-1.999805l-66.993458-21.697881c-5.899424-1.999805-7.899229-5.899424-5.899423-11.798847v-1.999805l62.993848-114.188849c7.899229-11.798848-1.999805-19.698076-11.798848-13.798652l-194.980959 159.484425c-3.899619 3.899619-5.899424 9.799043-1.999805 13.798652 0.09999 2.099795 2.099795 2.099795 3.99961 2.099795z" p-id="7154" fill="#ffffff"></path><path d="M873.36471 151.585197C778.873938 53.194805 648.886632 0 513.099893 0c-49.195196 0-100.390196 7.899229-147.685578 21.697881-19.698076 5.899424-31.496924 27.597305-25.5975 49.195196 5.899424 19.698076 27.597305 31.496924 49.195196 25.5975 39.396153-11.798848 82.691925-17.698272 124.087882-17.698272 114.188849 0 222.478274 45.295577 305.170198 127.987502 80.69212 82.691925 125.987697 190.981349 125.987696 307.170003 0 238.276731-194.980959 431.257885-433.157699 431.257885h-1.999805c-220.578459 0-403.66058-165.383849-429.25808-383.962504-1.999805-21.697881-21.697881-37.396348-43.295772-35.396543-21.697881 1.999805-37.396348 21.697881-35.396543 43.295771 29.497119 257.974807 248.075774 454.855581 509.9502 454.855581 281.572503 0 509.9502-228.377697 511.950005-509.9502 0-135.98672-53.194805-265.974026-149.685383-362.464603z" p-id="7155" fill="#ffffff"></path><path d="M255.825017 383.162582v47.495362l69.293233-20.098038v214.879016h-67.493409v44.895616h184.781955v-44.895616H375.013378v-276.972952zM531.198125 665.934967c5.899424-5.999414 8.899131-13.298701 8.899131-21.597891 0-8.49917-2.999707-15.798457-8.899131-21.797871s-13.498682-9.099111-22.397813-9.099111c-8.799141 0-16.198418 2.999707-22.097842 8.999121-5.899424 5.899424-8.999121 13.298701-8.999121 21.997852 0 8.29919 2.999707 15.598477 8.799141 21.597891 5.899424 5.999414 13.298701 9.099111 22.097842 9.099111 8.999121-0.09999 16.598379-3.199688 22.597793-9.199102zM700.281613 616.03984c-11.498877 10.498975-26.997364 15.898447-46.195489 15.898447-20.597988 0-40.796016-6.399375-59.994141-18.898154l-9.299092-6.099405v53.494776l2.999707 1.699834c15.298506 8.899131 37.196368 13.298701 66.693487 13.298702 34.996582 0 62.993848-9.699053 83.091886-28.697198 20.198028-19.098135 30.497022-44.395664 30.497022-75.192657 0-29.89708-9.599063-53.794747-28.597208-70.993067-18.798164-16.99834-45.195586-25.69749-78.392344-25.69749-4.699541 0-11.098916 0.19998-19.498096 0.599941v-72.892882h112.888976v-45.695537H594.291964v165.68382l6.499365-0.599942c19.698076-1.799824 35.596524-2.699736 47.095401-2.699736 22.997754 0 40.596036 4.899522 52.294893 14.598574 11.598867 9.499072 17.19832 22.697783 17.19832 40.296065 0.09999 17.698272-5.499463 31.396934-17.09833 41.895909z" p-id="7156" fill="#ffffff"></path></svg>