<?xml version="1.0" standalone="no"?><!DOCTYPE svg PUBLIC "-//W3C//DTD SVG 1.1//EN" "http://www.w3.org/Graphics/SVG/1.1/DTD/svg11.dtd"><svg t="1758117199389" class="icon" viewBox="0 0 1024 1024" version="1.1" xmlns="http://www.w3.org/2000/svg" p-id="16781" xmlns:xlink="http://www.w3.org/1999/xlink" width="256" height="256"><path d="M547.09858 714.936321c23.583857 0 43.628004 7.463246 60.132439 22.475032 16.845612 15.139728 25.502978 36.676523 26.05739 64.738328v133.911957c-0.554413 27.891217-9.211778 49.428012-26.014743 64.56774-16.547083 14.969139-36.591229 22.602974-60.175086 22.901504-22.944151-0.29853-42.64712-7.932364-59.151556-22.901504-17.655908-15.139728-26.611803-36.676523-26.867685-64.56774v-133.911957c0.255883-28.019158 9.211778-49.598601 26.867685-64.738328 16.504435-15.011786 36.250052-22.475032 59.151556-22.475032z m-311.110741 0c26.100037 0.255883 47.253009 8.572071 63.501562 24.948565 16.504435 16.248553 24.905918 36.889759 25.161801 61.838324 0 20.044146-6.098538 37.785348-18.295615 53.3089l-97.661905 122.482529h116.000167v43.500063H151.631835v-41.02653l118.4737-148.241389c4.605889-5.970597 7.719129-11.514722 9.382366-16.632377 1.108825-4.904419 1.705885-9.467661 1.705885-13.77502 0-11.386781-3.582358-21.32356-10.66178-29.76769-7.335305-8.486777-17.741202-12.836783-31.217692-13.135313-11.941194 0-21.877973 3.838241-29.76769 11.472076-8.230894 7.633834-13.050019 18.338262-14.585315 32.241222H151.631835c1.108825-25.247095 9.595602-46.144184 25.417684-62.691266 15.950023-16.077964 35.610345-24.266211 58.93832-24.522094z m179.501728 262.578318v43.500063h-43.500062v-43.500063h43.500062z m293.412186-172.635542l42.860356 69.941277 43.116238-69.941277h52.029487l-70.794219 105.764858 73.779517 110.370747h-51.901545l-46.229478-72.073633-46.016243 72.073633h-52.029486l73.907459-110.370747-70.794219-105.764858h52.029486z m-161.803173-46.442714c-27.763275 0.554413-41.964766 16.035317-42.519179 46.442714v128.666361c0.554413 30.705926 14.755904 46.186831 42.519179 46.485361 27.592687-0.29853 41.836825-15.779434 42.64712-46.485361v-128.666361c-0.810295-30.407397-15.054433-45.888301-42.64712-46.442714zM437.239599 262.066553l141.41785 264.966557a79.622173 79.622173 0 0 1-46.229478 113.356045 70.879514 70.879514 0 0 1-92.245721-66.870684l-2.942651-311.451918zM509.014702 10.66178c227.991504 0 412.824122 184.832618 412.824122 412.824122a411.203532 411.203532 0 0 1-42.64712 182.870851 31.98534 31.98534 0 0 1-57.31773-28.360335 348.853442 348.853442 0 1 0-623.415601 4.477948 31.98534 31.98534 0 1 1-56.933905 29.17063A411.118237 411.118237 0 0 1 96.190579 423.485902C96.190579 195.494398 281.023198 10.66178 509.014702 10.66178z" fill="#ffffff" p-id="16782"></path></svg>