<?xml version="1.0" standalone="no"?><!DOCTYPE svg PUBLIC "-//W3C//DTD SVG 1.1//EN" "http://www.w3.org/Graphics/SVG/1.1/DTD/svg11.dtd"><svg t="1746280693940" class="icon" viewBox="0 0 1024 1024" version="1.1" xmlns="http://www.w3.org/2000/svg" p-id="17033" xmlns:xlink="http://www.w3.org/1999/xlink" width="128" height="128"><path d="M342.456032 724.417628c56.341933-85.593788 70.428444-167.619341 70.428445-167.619342s45.77842 57.061612 28.170281 149.786389c77.4717-89.157912 91.556841-231.811941 80.993328-285.308059C698.118511 546.099063 775.590212 820.707898 673.468487 1020.423539c542.299159-313.838865 133.813633-781.030983 63.38656-830.958864 24.648653 53.494747 28.170281 142.654029-21.129767 185.449553C634.733323 61.075363 434.014244 0.448257 434.014244 0.448257 458.661526 160.933869 349.497917 335.682827 243.854565 467.637633c-3.521628-64.193971-7.043256-106.989494-42.256793-171.184835-7.043256 117.690088-95.078469 210.414865-119.728492 328.104953-31.69328 160.485612 24.650024 274.608835 239.456985 399.431282-66.906817-142.654029-31.69328-224.679582 21.128396-299.572776z" fill="#FF3636" p-id="17034"></path></svg>