<?xml version="1.0" standalone="no"?><!DOCTYPE svg PUBLIC "-//W3C//DTD SVG 1.1//EN" "http://www.w3.org/Graphics/SVG/1.1/DTD/svg11.dtd"><svg t="1743422905175" class="icon" viewBox="0 0 1024 1024" version="1.1" xmlns="http://www.w3.org/2000/svg" p-id="6909" xmlns:xlink="http://www.w3.org/1999/xlink" width="200" height="200"><path d="M955.733333 923.733333l-149.333333-153.6C876.8 693.333333 917.333333 593.066667 917.333333 490.666667c0-224-181.333333-405.333333-405.333333-405.333334S106.666667 266.666667 106.666667 490.666667s181.333333 405.333333 405.333333 405.333333c64 0 125.866667-14.933333 183.466667-42.666667 10.666667-4.266667 14.933333-17.066667 8.533333-27.733333-4.266667-10.666667-19.2-14.933333-27.733333-8.533333-51.2 25.6-106.666667 38.4-164.266667 38.4-200.533333 0-362.666667-162.133333-362.666667-362.666667S311.466667 128 512 128s362.666667 162.133333 362.666667 362.666667c0 100.266667-42.666667 196.266667-115.2 264.533333-8.533333 8.533333-8.533333 21.333333 0 29.866667 2.133333 2.133333 4.266667 4.266667 8.533333 4.266666l157.866667 162.133334c4.266667 4.266667 10.666667 6.4 14.933333 6.4 6.4 0 10.666667-2.133333 14.933333-6.4 6.4-6.4 8.533333-19.2 0-27.733334z" fill="#666666" p-id="6910"></path></svg>