<?xml version="1.0" standalone="no"?><!DOCTYPE svg PUBLIC "-//W3C//DTD SVG 1.1//EN" "http://www.w3.org/Graphics/SVG/1.1/DTD/svg11.dtd"><svg t="1745638225061" class="icon" viewBox="0 0 1024 1024" version="1.1" xmlns="http://www.w3.org/2000/svg" p-id="1492" data-spm-anchor-id="a313x.collections_detail.0.i1.12cf3a81W7zyuZ" xmlns:xlink="http://www.w3.org/1999/xlink" width="64" height="64"><path d="M307.884694 733.406622c-1.251503 0-2.52245-0.249687-3.744277-0.778736-4.790096-2.070148-6.993275-7.631818-4.923126-12.420891 0.384763-0.8913 9.716292-22.087041 34.135448-44.520983 22.254863-20.445658 61.981656-46.039569 124.860752-51.860135 5.196349-0.485047 9.798157 3.342118 10.278087 8.537444s-3.341095 9.797134-8.53642 10.278087c-109.797685 10.163477-143.07151 84.315314-143.393851 85.062328C315.019185 731.272006 311.538921 733.406622 307.884694 733.406622z" fill="#1296db" p-id="1493" data-spm-anchor-id="a313x.collections_detail.0.i2.12cf3a81W7zyuZ" class=""></path><path d="M451.524139 393.189034c-0.291642 0-0.585331-0.01228-0.88209-0.040932-62.869886-5.822612-102.598726-31.417547-124.854613-51.864228-24.421202-22.433942-33.756825-43.62866-34.141588-44.518936-2.071172-4.790096 0.132006-10.351766 4.92108-12.421914 4.779863-2.068102 10.331299 0.124843 12.410658 4.89652 0.149403 0.335644 8.610098 19.094894 30.314423 38.789445 29.181623 26.478048 67.231217 42.056861 113.092731 46.304605 5.195326 0.480954 9.017374 5.083785 8.53642 10.279111C460.467835 389.511271 456.349027 393.189034 451.524139 393.189034z" fill="#1296db" p-id="1494" data-spm-anchor-id="a313x.collections_detail.0.i0.12cf3a81W7zyuZ" class="selected"></path><path d="M512.037351 895.324362l-370.606713-1.152243c-5.082762-0.016373-9.241478-4.049223-9.413394-9.128915-0.007163-0.202615-0.167822-4.997827-0.167822-7.53972 0-45.710065 8.06263-90.403986 23.964808-132.839471 15.362896-40.996716 37.600363-78.788437 66.093301-112.325251 57.396221-67.556629 136.880507-113.162316 223.809345-128.419811 5.139044-0.902556 10.036587 2.533706 10.939143 7.67275 0.901533 5.139044-2.533706 10.036587-7.67275 10.939143C276.900006 552.73168 151.80287 700.908464 150.751934 875.3044l361.284393 1.12359 361.208669-1.171686c-1.057075-173.321464-125.248585-321.295634-296.079322-352.34479-5.133927-0.933255-8.53949-5.851265-7.607258-10.985192 0.934279-5.134951 5.856381-8.538467 10.985192-7.606235 86.402859 15.70468 165.334559 61.466933 222.255966 128.856763 28.27702 33.476439 50.339502 71.16276 65.577554 112.010073 15.772218 42.280966 23.77038 86.797855 23.77038 132.315538 0 2.514263-0.145309 7.260357-0.150426 7.460925-0.155543 5.090948-4.320399 9.141194-9.413394 9.157567L512.037351 895.324362z" fill="#231815" p-id="1495"></path><path d="M445.389418 520.410554c-0.558725 0-1.124614-0.050142-1.693572-0.152473-86.464257-15.655562-165.456333-61.401442-222.426859-128.809691-28.29851-33.483602-50.379411-71.181179-65.629743-112.045889-15.785521-42.297338-23.788799-86.834694-23.788799-132.373867 0-2.499937 0.158612-8.871041 0.165776-9.141194 0.127913-5.125741 4.319375-9.211802 9.444093-9.211802 0.005117 0 0.010233 0 0.014326 0l370.546338 0.537236 370.521778-0.48607c0.004093 0 0.008186 0 0.01228 0 5.133927 0 9.328459 4.099365 9.444093 9.232269 0.007163 0.268106 0.149403 6.598278 0.149403 9.06854 0 45.456285-7.975649 89.915869-23.704888 132.145669-15.196097 40.800241-37.201274 78.45177-65.406662 111.908766-56.764841 67.336618-135.51644 113.14799-221.747383 128.993886-5.132904 0.940418-10.057053-2.452865-10.999518-7.584746-0.944512-5.131881 2.451842-10.057053 7.583722-10.999518 170.95558-31.416524 295.090808-180.180685 295.377334-353.85826l-361.232205 0.473791-361.273137-0.523933c0.257873 174.167738 124.797307 323.022974 296.316729 354.080318 5.134951 0.930185 8.54256 5.846148 7.612375 10.980076C453.84909 517.209652 449.870476 520.410554 445.389418 520.410554z" fill="#231815" p-id="1496"></path></svg>