<?xml version="1.0" standalone="no"?><!DOCTYPE svg PUBLIC "-//W3C//DTD SVG 1.1//EN" "http://www.w3.org/Graphics/SVG/1.1/DTD/svg11.dtd"><svg t="1745757474748" class="icon" viewBox="0 0 1207 1024" version="1.1" xmlns="http://www.w3.org/2000/svg" p-id="27320" xmlns:xlink="http://www.w3.org/1999/xlink" width="150.875" height="128"><path d="M1089.438088 77.513944h-163.187251V16.318725a16.318725 16.318725 0 0 0-32.637451 0v61.195219h-587.474103V16.318725a16.318725 16.318725 0 1 0-32.63745 0v61.195219h-155.027889a118.637131 118.637131 0 0 0-118.473944 118.473944v709.374981a118.637131 118.637131 0 0 0 118.473944 118.637131h970.964144A118.637131 118.637131 0 0 0 1207.912032 905.362869V195.987888a118.637131 118.637131 0 0 0-118.473944-118.473944z m-970.637769 32.63745h155.027888V179.505976a16.318725 16.318725 0 1 0 32.63745 0V110.151394h587.474104V179.505976a16.318725 16.318725 0 1 0 32.63745 0V110.151394h163.187251a85.999681 85.999681 0 0 1 85.836494 85.836494v150.621833h-1142.310757v-150.621833a85.999681 85.999681 0 0 1 85.51012-85.836494z m970.637769 881.211156H118.800319A85.999681 85.999681 0 0 1 32.963825 905.362869V379.247171h1142.310757v526.115698a85.999681 85.999681 0 0 1-85.836494 85.999681z" fill="#2c2c2c" p-id="27321" data-spm-anchor-id="a313x.search_index.0.i21.1d2c3a81KN9q61" class=""></path><path d="M856.896255 498.537052L538.354741 817.078566l-158.128446-158.128446a16.318725 16.318725 0 1 0-23.009403 23.009402l169.551554 170.530677a16.318725 16.318725 0 0 0 11.586295 4.73243 16.318725 16.318725 0 0 0 11.096733-4.73243l330.617371-330.943745a16.318725 16.318725 0 1 0-23.17259-23.009402z" fill="#1296db" p-id="27322" data-spm-anchor-id="a313x.search_index.0.i20.1d2c3a81KN9q61" class=""></path></svg>