<?xml version="1.0" standalone="no"?><!DOCTYPE svg PUBLIC "-//W3C//DTD SVG 1.1//EN" "http://www.w3.org/Graphics/SVG/1.1/DTD/svg11.dtd"><svg t="1752583273059" class="icon" viewBox="0 0 1024 1024" version="1.1" xmlns="http://www.w3.org/2000/svg" p-id="14225" xmlns:xlink="http://www.w3.org/1999/xlink" width="64" height="64"><path d="M877.226667 377.173333c15.36 42.666667 23.893333 87.04 23.893333 134.826667 0 215.04-174.08 389.12-389.12 389.12S122.88 727.04 122.88 512C122.88 296.96 296.96 122.88 512 122.88c112.64 0 213.333333 47.786667 285.013333 124.586667 6.826667 0 11.946667-1.706667 17.066667-6.826667 0 0 6.826667-6.826667 6.826667-20.48C744.106667 136.533333 633.173333 85.333333 512 85.333333 276.48 85.333333 85.333333 276.48 85.333333 512s191.146667 426.666667 426.666667 426.666667 426.666667-191.146667 426.666667-426.666667c0-52.906667-10.24-102.4-27.306667-148.48C902.826667 358.4 887.466667 356.693333 877.226667 377.173333z" fill="#FDB52C" p-id="14226"></path><path d="M539.306667 406.186667l-8.533333 10.24c52.906667 54.613333 119.466667 92.16 201.386667 112.64-8.533333 11.946667-17.066667 23.893333-23.893333 35.84-34.133333-11.946667-64.853333-25.6-95.573333-44.373333L612.693333 546.133333 402.773333 546.133333l0-25.6c-30.72 18.773333-63.146667 35.84-98.986667 51.2-6.826667-11.946667-15.36-22.186667-22.186667-30.72 85.333333-34.133333 157.013333-78.506667 213.333333-134.826667L539.306667 406.186667zM370.346667 300.373333 409.6 300.373333c-6.826667 15.36-15.36 29.013333-22.186667 42.666667l129.706667 0 0 30.72-148.48 0c-18.773333 29.013333-40.96 54.613333-61.44 75.093333-6.826667-8.533333-13.653333-17.066667-22.186667-27.306667C317.44 389.12 348.16 348.16 370.346667 300.373333zM302.08 691.2l264.533333 0c25.6-42.666667 47.786667-83.626667 64.853333-124.586667l34.133333 18.773333c-20.48 35.84-40.96 71.68-61.44 105.813333l110.933333 0 0 32.426667L302.08 723.626667 302.08 691.2zM346.453333 590.506667l29.013333-15.36c18.773333 29.013333 34.133333 59.733333 49.493333 90.453333l-30.72 17.066667C380.586667 650.24 365.226667 619.52 346.453333 590.506667zM416.426667 450.56c-11.946667-17.066667-25.6-32.426667-37.546667-47.786667l23.893333-17.066667c13.653333 13.653333 27.306667 27.306667 40.96 44.373333L416.426667 450.56zM508.586667 440.32c-29.013333 27.306667-61.44 52.906667-98.986667 75.093333l192.853333 0C568.32 494.933333 537.6 469.333333 508.586667 440.32zM474.453333 568.32l30.72-8.533333c11.946667 32.426667 22.186667 66.56 30.72 98.986667l-34.133333 10.24C494.933333 633.173333 486.4 599.04 474.453333 568.32zM566.613333 300.373333l37.546667 0c-6.826667 15.36-13.653333 29.013333-20.48 42.666667l143.36 0 0 30.72-162.133333 0c-8.533333 11.946667-15.36 23.893333-22.186667 32.426667-11.946667-6.826667-22.186667-11.946667-32.426667-15.36C534.186667 365.226667 551.253333 334.506667 566.613333 300.373333zM640 455.68c-13.653333-15.36-30.72-32.426667-51.2-49.493333l22.186667-20.48c20.48 17.066667 37.546667 32.426667 52.906667 47.786667L640 455.68z" fill="#FDB52C" p-id="14227"></path><path d="M858.453333 300.373333m-34.133333 0a2 2 0 1 0 68.266667 0 2 2 0 1 0-68.266667 0Z" fill="#FDB52C" p-id="14228"></path></svg>