<?xml version="1.0" standalone="no"?><!DOCTYPE svg PUBLIC "-//W3C//DTD SVG 1.1//EN" "http://www.w3.org/Graphics/SVG/1.1/DTD/svg11.dtd"><svg t="1752031352021" class="icon" viewBox="0 0 1024 1024" version="1.1" xmlns="http://www.w3.org/2000/svg" p-id="19020" xmlns:xlink="http://www.w3.org/1999/xlink" width="200" height="200"><path d="M296.591495 650.911274c-12.739762 0-23.555429 10.629793-23.555429 23.766886 0 13.226033 10.558841 23.757892 23.555429 23.757892l428.151713 0c12.764346 0 23.579013-10.620799 23.579013-23.757892 0-13.232029-10.531859-23.766886-23.579013-23.766886L296.591495 650.911274zM724.743208 532.090235l-428.151713 0c-12.739762 0-23.555429 10.630792-23.555429 23.768885 0 13.222035 10.558841 23.757892 23.555429 23.757892l428.151713 0c12.764346 0 23.579013-10.629793 23.579013-23.757892C748.322222 542.627091 737.790362 532.090235 724.743208 532.090235zM296.728402 460.793774l166.485723 0c13.090125 0 23.694935-10.646781 23.694935-23.771883 0-13.218438-10.60481-23.762889-23.694935-23.762889l-166.485723 0c-13.086128 0-23.692337 10.642784-23.692337 23.762889C273.036066 450.240929 283.642474 460.793774 296.728402 460.793774zM655.311483 270.894925c0 12.820708 10.630792 23.545036 23.741903 23.545036l19.717631 0c13.206046 0 23.741903-10.535857 23.741903-23.545036L722.51292 175.40047c0-12.823306-10.629793-23.545036-23.741903-23.545036l-19.717631 0c-13.205047 0-23.741903 10.537256-23.741903 23.545036L655.311483 270.894925zM298.847565 270.894925c0 12.820708 10.629793 23.545036 23.738905 23.545036l19.718031 0c13.229031 0 23.741303-10.535857 23.741303-23.545036L366.045805 175.40047c0-12.823306-10.629793-23.545036-23.741303-23.545036l-19.718031 0c-13.226432 0-23.738905 10.537256-23.738905 23.545036L298.847565 270.894925zM843.331405 199.38361l-71.242498 0 0 61.060401 57.759839 0 0 543.285253L191.512139 803.729264 191.512139 260.444011l57.760638 0L249.272777 199.38361 178.028681 199.38361c-26.433078 0-47.577143 21.186635-47.577143 37.087255l0 570.740038c0 36.173474 21.280972 57.574764 47.577143 57.574764l665.302725 0c26.458061 0 47.576543-21.207421 47.576543-57.574764L890.907948 236.470865C890.908148 220.767112 869.601594 199.38361 843.331405 199.38361zM415.616996 199.38361 605.739293 199.38361l0 61.060401-190.122097 0L415.617196 199.38361zM744.23899 346.039777c-9.332672-9.342066-24.297526-9.294698-33.553251-0.042971l-83.874933 83.856945-34.807401-34.845775c-9.286704-9.273113-24.276541-9.342066-33.609213 0.007995-9.278709 9.273113-9.373645 24.250958-0.017988 33.605615l49.010571 48.99778c0.72251 1.000722 1.531961 1.951677 2.43435 2.859461 9.334671 9.327676 24.299525 9.286104 33.558048 0.042971l100.907385-100.923774C753.42776 370.466216 753.520697 355.321484 744.23899 346.039777z" fill="#272636" p-id="19021"></path></svg>