<?xml version="1.0" standalone="no"?><!DOCTYPE svg PUBLIC "-//W3C//DTD SVG 1.1//EN" "http://www.w3.org/Graphics/SVG/1.1/DTD/svg11.dtd"><svg t="1752584430566" class="icon" viewBox="0 0 1024 1024" version="1.1" xmlns="http://www.w3.org/2000/svg" p-id="24689" xmlns:xlink="http://www.w3.org/1999/xlink" width="64" height="64"><path d="M864.4 923.6H160.6c-34.2 0-62.1-27.8-62.1-62.1V217.4c0-34.2 27.8-62.1 62.1-62.1h703.8c34.2 0 62.1 27.8 62.1 62.1v644.1c0 34.2-27.9 62.1-62.1 62.1zM160.6 196.7c-11.4 0-20.7 9.3-20.7 20.7v644.1c0 11.4 9.3 20.7 20.7 20.7h703.8c11.4 0 20.7-9.3 20.7-20.7V217.4c0-11.4-9.3-20.7-20.7-20.7H160.6z" fill="#3889ff" p-id="24690"></path><path d="M119.3 390.2H891v41.4H119.3zM332.8 251.9c-11.4 0-20.7-9.3-20.7-20.7V120.9c0-11.4 9.3-20.7 20.7-20.7s20.7 9.3 20.7 20.7v110.4c0 11.3-9.3 20.6-20.7 20.6zM692.3 251.9c-11.4 0-20.7-9.3-20.7-20.7V120.9c0-11.4 9.3-20.7 20.7-20.7s20.7 9.3 20.7 20.7v110.4c0 11.3-9.3 20.6-20.7 20.6z" fill="#3889ff" p-id="24691"></path><path d="M681.8 538.6L449.1 771.4" fill="#3889ff" p-id="24692"></path><path d="M449.1 792.1c-5.3 0-10.6-2-14.6-6.1-8.1-8.1-8.1-21.2 0-29.3L667.2 524c8.1-8.1 21.2-8.1 29.3 0 8.1 8.1 8.1 21.2 0 29.3L463.7 786c-4.1 4-9.4 6.1-14.6 6.1z" fill="#3889ff" p-id="24693"></path><path d="M343.2 665.5L449 771.4" fill="#3889ff" p-id="24694"></path><path d="M449 792c-5.3 0-10.6-2-14.6-6.1L328.6 680.2c-8.1-8.1-8.1-21.2 0-29.3 8.1-8.1 21.2-8.1 29.3 0l105.8 105.8c8.1 8.1 8.1 21.2 0 29.3-4.1 4-9.4 6-14.7 6z" fill="#3889ff" p-id="24695"></path></svg>