<?xml version="1.0" standalone="no"?><!DOCTYPE svg PUBLIC "-//W3C//DTD SVG 1.1//EN" "http://www.w3.org/Graphics/SVG/1.1/DTD/svg11.dtd"><svg t="1745638444752" class="icon" viewBox="0 0 1024 1024" version="1.1" xmlns="http://www.w3.org/2000/svg" p-id="2590" xmlns:xlink="http://www.w3.org/1999/xlink" width="64" height="64"><path d="M619.955222 477.334479c-1.876744 0-3.774977-0.544399-5.445012-1.680269-4.428869-3.012613-5.577019-9.045003-2.565429-13.473873L841.376171 124.857682c3.01159-4.428869 9.04705-5.577019 13.473873-2.564405 4.428869 3.012613 5.579065 9.045003 2.565429 13.473873L627.984083 473.088782C626.108363 475.847615 623.057887 477.334479 619.955222 477.334479z" fill="#231815" p-id="2591"></path><path d="M666.395928 595.33908 481.121224 595.33908c-5.357008 0-9.698896-4.341888-9.698896-9.698896s4.341888-9.698896 9.698896-9.698896l185.274704 0c5.354961 0 9.698896 4.341888 9.698896 9.698896S671.750889 595.33908 666.395928 595.33908z" fill="#1296db" p-id="2592" data-spm-anchor-id="a313x.collections_detail.0.i19.12cf3a81W7zyuZ" class="selected"></path><path d="M666.395928 730.265072 346.165556 730.265072c-5.355985 0-9.698896-4.342912-9.698896-9.698896 0-5.355985 4.341888-9.699919 9.698896-9.699919l320.230372 0c5.354961 0 9.698896 4.342912 9.698896 9.699919C676.0938 725.922161 671.750889 730.265072 666.395928 730.265072z" fill="#1296db" p-id="2593" data-spm-anchor-id="a313x.collections_detail.0.i20.12cf3a81W7zyuZ" class="selected"></path><path d="M742.567771 903.385968 281.430182 903.385968c-75.977415 0-137.789203-61.801555-137.789203-137.765667L143.640979 304.578904c0-75.966159 61.811788-137.76976 137.789203-137.76976l251.915473 0c5.354961 0 9.698896 4.342912 9.698896 9.698896s-4.342912 9.698896-9.698896 9.698896L281.430182 186.206936c-65.280796 0-118.391411 53.101405-118.391411 118.371968L163.038772 765.620301c0 65.267493 53.110615 118.368898 118.391411 118.368898l461.138612 0c65.282842 0 118.392434-53.101405 118.392434-118.368898L860.961228 471.063659c0-5.357008 4.341888-9.698896 9.699919-9.698896 5.353938 0 9.698896 4.341888 9.698896 9.698896L880.360044 765.620301C880.359021 841.584414 818.54621 903.385968 742.567771 903.385968z" fill="#231815" p-id="2594"></path></svg>