<?xml version="1.0" standalone="no"?><!DOCTYPE svg PUBLIC "-//W3C//DTD SVG 1.1//EN" "http://www.w3.org/Graphics/SVG/1.1/DTD/svg11.dtd"><svg t="1746278586180" class="icon" viewBox="0 0 1024 1024" version="1.1" xmlns="http://www.w3.org/2000/svg" p-id="1797" xmlns:xlink="http://www.w3.org/1999/xlink" width="128" height="128"><path d="M512 0C231.747368 0 0 231.747368 0 512S231.747368 1024 512 1024 1024 792.252632 1024 512 792.252632 0 512 0z m0 970.105263C258.694737 970.105263 53.894737 765.305263 53.894737 512S258.694737 53.894737 512 53.894737 970.105263 258.694737 970.105263 512 765.305263 970.105263 512 970.105263z" fill="#151515" p-id="1798"></path><path d="M512 512m-269.473684 0a269.473684 269.473684 0 1 0 538.947368 0 269.473684 269.473684 0 1 0-538.947368 0Z" fill="#151515" p-id="1799"></path></svg>